<?xml version="1.0" encoding="utf-8" standalone="no"?>
<!DOCTYPE svg PUBLIC "-//W3C//DTD SVG 1.1//EN"
  "http://www.w3.org/Graphics/SVG/1.1/DTD/svg11.dtd">
<!-- Created with matplotlib (http://matplotlib.org/) -->
<svg height="264.738779pt" version="1.1" viewBox="0 0 421.946448 264.738779" width="421.946448pt" xmlns="http://www.w3.org/2000/svg" xmlns:xlink="http://www.w3.org/1999/xlink">
 <defs>
  <style type="text/css">
*{stroke-linecap:butt;stroke-linejoin:round;}
  </style>
 </defs>
 <g id="figure_1">
  <g id="patch_1">
   <path d="M 0 264.738779 
L 421.946448 264.738779 
L 421.946448 0 
L 0 0 
z
" style="fill:#ffffff;"/>
  </g>
  <g id="axes_1">
   <g id="patch_2">
    <path d="M 65.081944 213.199571 
L 407.43021 213.199571 
L 407.43021 12.388862 
L 65.081944 12.388862 
z
" style="fill:#ffffff;"/>
   </g>
   <g id="matplotlib.axis_1">
    <g id="xtick_1">
     <g id="line2d_1">
      <path clip-path="url(#pb9816acb9b)" d="M 65.081944 213.199571 
L 65.081944 12.388862 
" style="fill:none;opacity:0.1;stroke:#000000;stroke-linecap:square;stroke-width:0.5;"/>
     </g>
     <g id="line2d_2">
      <defs>
       <path d="M 0 0 
L 0 -6 
" id="m569b477a30" style="stroke:#000000;"/>
      </defs>
      <g>
       <use style="stroke:#000000;" x="65.081944" xlink:href="#m569b477a30" y="213.199571"/>
      </g>
     </g>
     <g id="line2d_3">
      <defs>
       <path d="M 0 0 
L 0 6 
" id="m067caaa4d1" style="stroke:#000000;"/>
      </defs>
      <g>
       <use style="stroke:#000000;" x="65.081944" xlink:href="#m067caaa4d1" y="12.388862"/>
      </g>
     </g>
     <g id="text_1">
      <!-- 0 -->
      <defs>
       <path d="M 42 31.640625 
C 42 37.75 41.90625 48.125 37.703125 56.109375 
C 34 63.109375 28.09375 65.59375 22.90625 65.59375 
C 18.09375 65.59375 12 63.40625 8.203125 56.203125 
C 4.203125 48.71875 3.796875 39.4375 3.796875 31.640625 
C 3.796875 25.953125 3.90625 17.28125 7 9.671875 
C 11.296875 -0.609375 19 -2 22.90625 -2 
C 27.5 -2 34.5 -0.109375 38.59375 9.375 
C 41.59375 16.28125 42 24.359375 42 31.640625 
z
M 22.90625 -0.40625 
C 16.5 -0.40625 12.703125 5.078125 11.296875 12.6875 
C 10.203125 18.5625 10.203125 27.15625 10.203125 32.75 
C 10.203125 40.4375 10.203125 46.828125 11.5 52.921875 
C 13.40625 61.390625 19 64 22.90625 64 
C 27 64 32.296875 61.296875 34.203125 53.125 
C 35.5 47.4375 35.59375 40.734375 35.59375 32.75 
C 35.59375 26.25 35.59375 18.265625 34.40625 12.375 
C 32.296875 1.484375 26.40625 -0.40625 22.90625 -0.40625 
z
" id="CMR17-48"/>
      </defs>
      <g transform="translate(61.423825 235.577296)scale(0.15 -0.15)">
       <use transform="scale(0.996264)" xlink:href="#CMR17-48"/>
      </g>
     </g>
    </g>
    <g id="xtick_2">
     <g id="line2d_4">
      <path clip-path="url(#pb9816acb9b)" d="M 133.551597 213.199571 
L 133.551597 12.388862 
" style="fill:none;opacity:0.1;stroke:#000000;stroke-linecap:square;stroke-width:0.5;"/>
     </g>
     <g id="line2d_5">
      <g>
       <use style="stroke:#000000;" x="133.551597" xlink:href="#m569b477a30" y="213.199571"/>
      </g>
     </g>
     <g id="line2d_6">
      <g>
       <use style="stroke:#000000;" x="133.551597" xlink:href="#m067caaa4d1" y="12.388862"/>
      </g>
     </g>
     <g id="text_2">
      <!-- 10 -->
      <defs>
       <path d="M 26.59375 63.40625 
C 26.59375 65.5 26.5 65.5 25.09375 65.5 
C 21.203125 61.1875 15.296875 59.796875 9.703125 59.796875 
C 9.40625 59.796875 8.90625 59.796875 8.796875 59.5 
C 8.703125 59.296875 8.703125 59.09375 8.703125 57 
C 11.796875 57 17 57.59375 21 59.984375 
L 21 7.203125 
C 21 3.6875 20.796875 2.5 12.203125 2.5 
L 9.203125 2.5 
L 9.203125 0 
C 14 0 19 0 23.796875 0 
C 28.59375 0 33.59375 0 38.40625 0 
L 38.40625 2.5 
L 35.40625 2.5 
C 26.796875 2.5 26.59375 3.59375 26.59375 7.15625 
z
" id="CMR17-49"/>
      </defs>
      <g transform="translate(126.235359 235.577296)scale(0.15 -0.15)">
       <use transform="scale(0.996264)" xlink:href="#CMR17-49"/>
       <use transform="translate(45.690477 0)scale(0.996264)" xlink:href="#CMR17-48"/>
      </g>
     </g>
    </g>
    <g id="xtick_3">
     <g id="line2d_7">
      <path clip-path="url(#pb9816acb9b)" d="M 202.02125 213.199571 
L 202.02125 12.388862 
" style="fill:none;opacity:0.1;stroke:#000000;stroke-linecap:square;stroke-width:0.5;"/>
     </g>
     <g id="line2d_8">
      <g>
       <use style="stroke:#000000;" x="202.02125" xlink:href="#m569b477a30" y="213.199571"/>
      </g>
     </g>
     <g id="line2d_9">
      <g>
       <use style="stroke:#000000;" x="202.02125" xlink:href="#m067caaa4d1" y="12.388862"/>
      </g>
     </g>
     <g id="text_3">
      <!-- 20 -->
      <defs>
       <path d="M 41.703125 15.453125 
L 39.90625 15.453125 
C 38.90625 8.375 38.09375 7.171875 37.703125 6.5625 
C 37.203125 5.765625 30 5.765625 28.59375 5.765625 
L 9.40625 5.765625 
C 13 9.671875 20 16.75 28.5 24.953125 
C 34.59375 30.734375 41.703125 37.53125 41.703125 47.421875 
C 41.703125 59.21875 32.296875 66 21.796875 66 
C 10.796875 66 4.09375 56.3125 4.09375 47.34375 
C 4.09375 43.4375 7 42.9375 8.203125 42.9375 
C 9.203125 42.9375 12.203125 43.546875 12.203125 47.03125 
C 12.203125 50.109375 9.59375 51 8.203125 51 
C 7.59375 51 7 50.90625 6.59375 50.703125 
C 8.5 59.21875 14.296875 63.40625 20.40625 63.40625 
C 29.09375 63.40625 34.796875 56.515625 34.796875 47.421875 
C 34.796875 38.734375 29.703125 31.25 24 24.75 
L 4.09375 2.28125 
L 4.09375 0 
L 39.296875 0 
z
" id="CMR17-50"/>
      </defs>
      <g transform="translate(194.705013 235.577296)scale(0.15 -0.15)">
       <use transform="scale(0.996264)" xlink:href="#CMR17-50"/>
       <use transform="translate(45.690477 0)scale(0.996264)" xlink:href="#CMR17-48"/>
      </g>
     </g>
    </g>
    <g id="xtick_4">
     <g id="line2d_10">
      <path clip-path="url(#pb9816acb9b)" d="M 270.490903 213.199571 
L 270.490903 12.388862 
" style="fill:none;opacity:0.1;stroke:#000000;stroke-linecap:square;stroke-width:0.5;"/>
     </g>
     <g id="line2d_11">
      <g>
       <use style="stroke:#000000;" x="270.490903" xlink:href="#m569b477a30" y="213.199571"/>
      </g>
     </g>
     <g id="line2d_12">
      <g>
       <use style="stroke:#000000;" x="270.490903" xlink:href="#m067caaa4d1" y="12.388862"/>
      </g>
     </g>
     <g id="text_4">
      <!-- 30 -->
      <defs>
       <path d="M 22.09375 33.703125 
C 31 33.703125 34.90625 25.96875 34.90625 17.03125 
C 34.90625 5 28.5 0.390625 22.703125 0.390625 
C 17.40625 0.390625 8.796875 3.03125 6.09375 10.828125 
C 6.59375 10.625 7.09375 10.625 7.59375 10.625 
C 10 10.625 11.796875 12.21875 11.796875 14.8125 
C 11.796875 17.703125 9.59375 19 7.59375 19 
C 5.90625 19 3.296875 18.203125 3.296875 14.46875 
C 3.296875 5.234375 12.296875 -2 22.90625 -2 
C 34 -2 42.5 6.71875 42.5 16.953125 
C 42.5 26.671875 34.5 33.703125 25 34.796875 
C 32.59375 36.375 39.90625 43.0625 39.90625 52.015625 
C 39.90625 59.6875 32 65.296875 23 65.296875 
C 13.90625 65.296875 5.90625 59.828125 5.90625 52.015625 
C 5.90625 48.59375 8.5 48 9.796875 48 
C 11.90625 48 13.703125 49.296875 13.703125 51.890625 
C 13.703125 54.46875 11.90625 55.765625 9.796875 55.765625 
C 9.40625 55.765625 8.90625 55.765625 8.5 55.578125 
C 11.40625 61.859375 19.296875 63 22.796875 63 
C 26.296875 63 32.90625 61.328125 32.90625 51.875 
C 32.90625 49.109375 32.5 44.1875 29.09375 39.84375 
C 26.09375 36 22.703125 36 19.40625 35.6875 
C 18.90625 35.6875 16.59375 35.453125 16.203125 35.453125 
C 15.5 35.359375 15.09375 35.265625 15.09375 34.5 
C 15.09375 33.796875 15.203125 33.703125 17.203125 33.703125 
z
" id="CMR17-51"/>
      </defs>
      <g transform="translate(263.174666 235.577296)scale(0.15 -0.15)">
       <use transform="scale(0.996264)" xlink:href="#CMR17-51"/>
       <use transform="translate(45.690477 0)scale(0.996264)" xlink:href="#CMR17-48"/>
      </g>
     </g>
    </g>
    <g id="xtick_5">
     <g id="line2d_13">
      <path clip-path="url(#pb9816acb9b)" d="M 338.960557 213.199571 
L 338.960557 12.388862 
" style="fill:none;opacity:0.1;stroke:#000000;stroke-linecap:square;stroke-width:0.5;"/>
     </g>
     <g id="line2d_14">
      <g>
       <use style="stroke:#000000;" x="338.960557" xlink:href="#m569b477a30" y="213.199571"/>
      </g>
     </g>
     <g id="line2d_15">
      <g>
       <use style="stroke:#000000;" x="338.960557" xlink:href="#m067caaa4d1" y="12.388862"/>
      </g>
     </g>
     <g id="text_5">
      <!-- 40 -->
      <defs>
       <path d="M 33.59375 64.40625 
C 33.59375 66.5 33.5 66.5 31.703125 66.5 
L 2 19.59375 
L 2 17 
L 27.796875 17 
L 27.796875 7.140625 
C 27.796875 3.5 27.59375 2.5 20.59375 2.5 
L 18.703125 2.5 
L 18.703125 0 
C 21.90625 0 27.296875 0 30.703125 0 
C 34.09375 0 39.5 0 42.703125 0 
L 42.703125 2.5 
L 40.796875 2.5 
C 33.796875 2.5 33.59375 3.5 33.59375 7.140625 
L 33.59375 17 
L 43.796875 17 
L 43.796875 19.59375 
L 33.59375 19.59375 
z
M 28.09375 57.859375 
L 28.09375 19.59375 
L 4 19.59375 
z
" id="CMR17-52"/>
      </defs>
      <g transform="translate(331.644319 235.577296)scale(0.15 -0.15)">
       <use transform="scale(0.996264)" xlink:href="#CMR17-52"/>
       <use transform="translate(45.690477 0)scale(0.996264)" xlink:href="#CMR17-48"/>
      </g>
     </g>
    </g>
    <g id="xtick_6">
     <g id="line2d_16">
      <path clip-path="url(#pb9816acb9b)" d="M 407.43021 213.199571 
L 407.43021 12.388862 
" style="fill:none;opacity:0.1;stroke:#000000;stroke-linecap:square;stroke-width:0.5;"/>
     </g>
     <g id="line2d_17">
      <g>
       <use style="stroke:#000000;" x="407.43021" xlink:href="#m569b477a30" y="213.199571"/>
      </g>
     </g>
     <g id="line2d_18">
      <g>
       <use style="stroke:#000000;" x="407.43021" xlink:href="#m067caaa4d1" y="12.388862"/>
      </g>
     </g>
     <g id="text_6">
      <!-- 50 -->
      <defs>
       <path d="M 11.40625 57.6875 
C 12.40625 57.28125 16.5 56 20.703125 56 
C 30 56 35.09375 61.109375 38 64.0625 
C 38 64.953125 38 65.5 37.40625 65.5 
C 37.296875 65.5 37.09375 65.5 36.296875 65.046875 
C 32.796875 63.40625 28.703125 62.078125 23.703125 62.078125 
C 20.703125 62.078125 16.203125 62.484375 11.296875 64.671875 
C 10.203125 65.171875 10 65.171875 9.90625 65.171875 
C 9.40625 65.171875 9.296875 65.0625 9.296875 63.078125 
L 9.296875 34.421875 
C 9.296875 32.640625 9.296875 32.140625 10.296875 32.140625 
C 10.796875 32.140625 11 32.34375 11.5 33.03125 
C 14.703125 37.515625 19.09375 39.40625 24.09375 39.40625 
C 27.59375 39.40625 35.09375 37.21875 35.09375 20.140625 
C 35.09375 16.953125 35.09375 11.171875 32.09375 6.578125 
C 29.59375 2.484375 25.703125 0.390625 21.40625 0.390625 
C 14.796875 0.390625 8.09375 5 6.296875 12.71875 
C 6.703125 12.609375 7.5 12.421875 7.90625 12.421875 
C 9.203125 12.421875 11.703125 13.125 11.703125 16.21875 
C 11.703125 18.90625 9.796875 20 7.90625 20 
C 5.59375 20 4.09375 18.59375 4.09375 15.796875 
C 4.09375 7.09375 11 -2 21.59375 -2 
C 31.90625 -2 41.703125 6.875 41.703125 19.75 
C 41.703125 31.71875 33.90625 41 24.203125 41 
C 19.09375 41 14.796875 39.109375 11.40625 35.53125 
z
" id="CMR17-53"/>
      </defs>
      <g transform="translate(400.113972 235.577296)scale(0.15 -0.15)">
       <use transform="scale(0.996264)" xlink:href="#CMR17-53"/>
       <use transform="translate(45.690477 0)scale(0.996264)" xlink:href="#CMR17-48"/>
      </g>
     </g>
    </g>
    <g id="text_7">
     <!-- inverse temperature $\beta$ -->
     <defs>
      <path d="M 15.5 61.078125 
C 15.5 63.265625 13.703125 65.15625 11.40625 65.15625 
C 9.203125 65.15625 7.296875 63.375 7.296875 61.078125 
C 7.296875 58.890625 9.09375 57 11.40625 57 
C 13.59375 57 15.5 58.796875 15.5 61.078125 
z
M 3.796875 42.28125 
L 3.796875 39.703125 
C 9.40625 39.703125 10.203125 39.09375 10.203125 34.328125 
L 10.203125 6.671875 
C 10.203125 2.875 9.796875 2.390625 3.40625 2.390625 
L 3.40625 -0.203125 
C 5.796875 0 10.09375 0 12.59375 0 
C 15 0 19.09375 0 21.40625 -0.203125 
L 21.40625 2.390625 
C 15.5 2.390625 15.296875 2.984375 15.296875 6.5625 
L 15.296875 43.375 
z
" id="CMR17-105"/>
      <path d="M 41.5 30.203125 
C 41.5 35.296875 40.5 43.59375 28.703125 43.59375 
C 20.796875 43.59375 16.703125 37.5 15.203125 33.5 
L 15.09375 33.5 
L 15.09375 43.59375 
L 3.296875 42.5 
L 3.296875 39.90625 
C 9.203125 39.90625 10.09375 39.296875 10.09375 34.5 
L 10.09375 6.6875 
C 10.09375 2.875 9.703125 2.390625 3.296875 2.390625 
L 3.296875 -0.203125 
C 5.703125 0 10.09375 0 12.703125 0 
C 15.296875 0 19.796875 0 22.203125 -0.203125 
L 22.203125 2.390625 
C 15.796875 2.390625 15.40625 2.78125 15.40625 6.6875 
L 15.40625 25.90625 
C 15.40625 35.109375 21 42 28 42 
C 35.40625 42 36.203125 35.40625 36.203125 30.59375 
L 36.203125 6.6875 
C 36.203125 2.875 35.796875 2.390625 29.40625 2.390625 
L 29.40625 -0.203125 
C 31.796875 0 36.203125 0 38.796875 0 
C 41.40625 0 45.90625 0 48.296875 -0.203125 
L 48.296875 2.390625 
C 41.90625 2.390625 41.5 2.78125 41.5 6.6875 
z
" id="CMR17-110"/>
      <path d="M 39.09375 33.796875 
C 40 36 41.59375 40 47.40625 40 
L 47.40625 42.59375 
C 45.5 42.59375 43 42.59375 41.09375 42.59375 
C 39 42.59375 35.703125 42.59375 33.703125 42.6875 
L 33.703125 40.09375 
C 36.203125 39.890625 37.59375 38.703125 37.59375 36.109375 
C 37.59375 35.203125 37.59375 35 37 33.609375 
L 26 5.890625 
L 14.09375 35.71875 
C 13.5 37.015625 13.5 37.203125 13.5 37.609375 
C 13.5 40 16.796875 40 18.296875 40 
L 18.296875 42.6875 
C 15.90625 42.59375 11.5 42.59375 9 42.59375 
C 6.296875 42.59375 3.203125 42.59375 1 42.6875 
L 1 40 
C 4.796875 40 6.90625 40 8.09375 36.90625 
L 22.59375 0.6875 
C 23.203125 -0.796875 23.296875 -1 24.203125 -1 
C 25.09375 -1 25.203125 -0.796875 25.796875 0.6875 
z
" id="CMR17-118"/>
      <path d="M 38.09375 23 
C 38.5 23.40625 38.5 23.609375 38.5 24.625 
C 38.5 34.96875 33.09375 44 21.703125 44 
C 11.09375 44 2.703125 33.890625 2.703125 21.609375 
C 2.703125 8.609375 12.203125 -1 22.796875 -1 
C 34 -1 38.40625 9.484375 38.40625 11.5625 
C 38.40625 12.25 37.796875 12.25 37.59375 12.25 
C 36.90625 12.25 36.796875 12.046875 36.40625 10.875 
C 34.203125 4.140625 28.703125 0.796875 23.5 0.796875 
C 19.203125 0.796875 14.90625 3.171875 12.203125 7.5 
C 9.09375 12.546875 9.09375 18.375 9.09375 23 
z
M 9.203125 24.5 
C 9.90625 39.140625 17.59375 42.40625 21.59375 42.40625 
C 28.40625 42.40625 33 35.890625 33.09375 24.5 
z
" id="CMR17-101"/>
      <path d="M 15 23.390625 
C 15 33 19.09375 42 26.59375 42 
C 27.296875 42 28 41.90625 28.703125 41.59375 
C 28.703125 41.59375 26.5 40.890625 26.5 38.3125 
C 26.5 35.90625 28.40625 34.90625 29.90625 34.90625 
C 31.09375 34.90625 33.296875 35.609375 33.296875 38.40625 
C 33.296875 41.609375 30.09375 43.59375 26.703125 43.59375 
C 19.09375 43.59375 15.796875 36.203125 14.796875 32.703125 
L 14.703125 32.703125 
L 14.703125 43.59375 
L 3.09375 42.5 
L 3.09375 39.90625 
C 9 39.90625 9.90625 39.296875 9.90625 34.5 
L 9.90625 6.6875 
C 9.90625 2.875 9.5 2.390625 3.09375 2.390625 
L 3.09375 -0.203125 
C 5.5 0 10.09375 0 12.703125 0 
C 15.59375 0 20.703125 0 23.40625 -0.203125 
L 23.40625 2.390625 
C 16.203125 2.390625 15 2.390625 15 6.875 
z
" id="CMR17-114"/>
      <path d="M 30.90625 42.140625 
C 30.90625 43.953125 30.796875 44.046875 30.203125 44.046875 
C 29.796875 44.046875 29.703125 43.953125 28.5 42.453125 
C 28.203125 42.046875 27.296875 41.03125 27 40.640625 
C 23.796875 44.046875 19.296875 44.046875 17.59375 44.046875 
C 6.5 44.046875 2.5 38.234375 2.5 32.4375 
C 2.5 23.40625 12.703125 21.328125 15.59375 20.703125 
C 21.90625 19.421875 24.09375 19.015625 26.203125 17.203125 
C 27.5 16.015625 29.703125 13.8125 29.703125 10.21875 
C 29.703125 6 27.296875 0.59375 18.09375 0.59375 
C 9.40625 0.59375 6.296875 7.1875 4.5 15.953125 
C 4.203125 17.34375 4.203125 17.453125 3.40625 17.453125 
C 2.59375 17.453125 2.5 17.34375 2.5 15.359375 
L 2.5 0.984375 
C 2.5 -0.796875 2.59375 -0.90625 3.203125 -0.90625 
C 3.703125 -0.90625 3.796875 -0.796875 4.296875 0 
C 4.90625 0.890625 6.40625 3.296875 7 4.3125 
C 9 1.609375 12.5 -1 18.09375 -1 
C 28 -1 33.296875 4.421875 33.296875 12.25 
C 33.296875 17.375 30.59375 20.078125 29.296875 21.28125 
C 26.296875 24.390625 22.796875 25.09375 18.59375 25.890625 
C 13.09375 27.109375 6.09375 28.515625 6.09375 34.640625 
C 6.09375 37.234375 7.5 42.765625 17.59375 42.765625 
C 28.296875 42.765625 28.90625 32.71875 29.09375 29.5 
C 29.203125 29 29.703125 28.890625 30 28.890625 
C 30.90625 28.890625 30.90625 29.203125 30.90625 30.90625 
z
" id="CMR17-115"/>
      <path d="M 15.09375 40 
L 29.09375 40 
L 29.09375 42.578125 
L 15.09375 42.578125 
L 15.09375 61 
L 13.296875 61 
C 13.09375 50.703125 9.59375 41.6875 1.09375 41.6875 
L 1.09375 40 
L 9.796875 40 
L 9.796875 12.046875 
C 9.796875 10.15625 9.796875 -1 21.40625 -1 
C 27.296875 -1 30.703125 4.78125 30.703125 12.140625 
L 30.703125 17.8125 
L 28.90625 17.8125 
L 28.90625 12.234375 
C 28.90625 5.375 26.203125 0.796875 22 0.796875 
C 19.09375 0.796875 15.09375 2.78125 15.09375 11.84375 
z
" id="CMR17-116"/>
      <path d="M 67.59375 30.203125 
C 67.59375 35.1875 66.703125 43.59375 54.796875 43.59375 
C 48 43.59375 43.296875 39 41.5 33.609375 
L 41.40625 33.609375 
C 40.203125 41.8125 34.296875 43.59375 28.703125 43.59375 
C 20.796875 43.59375 16.703125 37.5 15.203125 33.5 
L 15.09375 33.5 
L 15.09375 43.59375 
L 3.296875 42.5 
L 3.296875 39.90625 
C 9.203125 39.90625 10.09375 39.296875 10.09375 34.5 
L 10.09375 6.6875 
C 10.09375 2.875 9.703125 2.390625 3.296875 2.390625 
L 3.296875 -0.203125 
C 5.703125 0 10.09375 0 12.703125 0 
C 15.296875 0 19.796875 0 22.203125 -0.203125 
L 22.203125 2.390625 
C 15.796875 2.390625 15.40625 2.78125 15.40625 6.6875 
L 15.40625 25.90625 
C 15.40625 35.109375 21 42 28 42 
C 35.40625 42 36.203125 35.40625 36.203125 30.59375 
L 36.203125 6.6875 
C 36.203125 2.875 35.796875 2.390625 29.40625 2.390625 
L 29.40625 -0.203125 
C 31.796875 0 36.203125 0 38.796875 0 
C 41.40625 0 45.90625 0 48.296875 -0.203125 
L 48.296875 2.390625 
C 41.90625 2.390625 41.5 2.78125 41.5 6.6875 
L 41.5 25.90625 
C 41.5 35.109375 47.09375 42 54.09375 42 
C 61.5 42 62.296875 35.40625 62.296875 30.59375 
L 62.296875 6.6875 
C 62.296875 2.875 61.90625 2.390625 55.5 2.390625 
L 55.5 -0.203125 
C 57.90625 0 62.296875 0 64.90625 0 
C 67.5 0 72 0 74.40625 -0.203125 
L 74.40625 2.390625 
C 68 2.390625 67.59375 2.78125 67.59375 6.6875 
z
" id="CMR17-109"/>
      <path d="M 22 -16.609375 
C 15.59375 -16.609375 15.203125 -16.203125 15.203125 -12.328125 
L 15.203125 6.28125 
C 18.09375 2.09375 22.296875 -0.59375 27.59375 -0.59375 
C 37.59375 -0.59375 47.703125 8.171875 47.703125 21.6875 
C 47.703125 34.234375 39 43.78125 28.703125 43.78125 
C 22.703125 43.78125 17.796875 40.5 15 36.53125 
L 15 43.78125 
L 3.09375 42.6875 
L 3.09375 40.109375 
C 9 40.109375 9.90625 39.5 9.90625 34.734375 
L 9.90625 -12.328125 
C 9.90625 -16.109375 9.5 -16.609375 3.09375 -16.609375 
L 3.09375 -19.1875 
C 5.5 -19 9.90625 -19 12.5 -19 
C 15.09375 -19 19.59375 -19 22 -19.1875 
z
M 15.203125 31.4375 
C 15.203125 32.84375 15.203125 34.921875 19.09375 38.609375 
C 19.59375 39.015625 23 42 28 42 
C 35.296875 42 41.296875 32.9375 41.296875 21.59375 
C 41.296875 10.25 34.90625 1 27 1 
C 23.40625 1 19.5 2.6875 16.5 7.375 
C 15.203125 9.5625 15.203125 10.15625 15.203125 11.75 
z
" id="CMR17-112"/>
      <path d="M 36 25.828125 
C 36 32.375 36 35.84375 31.796875 39.734375 
C 28.09375 43 23.796875 44 20.40625 44 
C 12.5 44 6.796875 37.609375 6.796875 30.796875 
C 6.796875 27 9.796875 27 10.40625 27 
C 11.703125 27 14 27.78125 14 30.53125 
C 14 33 12.09375 34.078125 10.40625 34.078125 
C 10 34.078125 9.5 33.96875 9.203125 33.875 
C 11.296875 40.5 16.703125 42.40625 20.203125 42.40625 
C 25.203125 42.40625 30.703125 37.953125 30.703125 29.453125 
L 30.703125 25 
C 24.796875 25 17.703125 24.203125 12.09375 21.203125 
C 5.796875 17.703125 4 12.703125 4 8.90625 
C 4 1.203125 13 -1 18.296875 -1 
C 23.796875 -1 28.90625 2.171875 31.09375 7.984375 
C 31.296875 3.640625 34.09375 -0.28125 38.5 -0.28125 
C 40.59375 -0.28125 45.90625 1.09375 45.90625 8.859375 
L 45.90625 14.375 
L 44.09375 14.375 
L 44.09375 8.78125 
C 44.09375 2.78125 41.40625 2 40.09375 2 
C 36 2 36 7.15625 36 11.53125 
z
M 30.703125 13.59375 
C 30.703125 4.953125 24.5 0.59375 19 0.59375 
C 14 0.59375 10.09375 4.296875 10.09375 8.90625 
C 10.09375 11.890625 11.40625 17.1875 17.203125 20.390625 
C 22 23.09375 27.5 23.5 30.703125 23.5 
z
" id="CMR17-97"/>
      <path d="M 29.40625 42.078125 
L 29.40625 39.5 
C 35.296875 39.5 36.203125 38.890625 36.203125 34.15625 
L 36.203125 16.125 
C 36.203125 7.8125 31.703125 0.59375 24.296875 0.59375 
C 16.09375 0.59375 15.40625 5.4375 15.40625 10.59375 
L 15.40625 43.171875 
L 3.296875 42.078125 
L 3.296875 39.5 
C 7.296875 39.5 10 39.5 10.09375 35.53125 
L 10.09375 16.53125 
C 10.09375 9.890625 10.09375 5.640625 12.703125 2.859375 
C 14 1.578125 16.5 -1 23.703125 -1 
C 32.203125 -1 35.5 5.890625 36.296875 7.90625 
L 36.40625 7.90625 
L 36.40625 -0.984375 
L 48.296875 -0.984375 
L 48.296875 2 
C 42.40625 2 41.5 2.59375 41.5 7.390625 
L 41.5 43.171875 
z
" id="CMR17-117"/>
      <path d="M 56.59375 57.828125 
C 56.59375 63.765625 51.5 70 42.40625 70 
C 29.5 70 21.296875 54.328125 18.703125 44 
L 2.90625 -18.3125 
C 2.703125 -19.109375 3.296875 -19.3125 3.796875 -19.3125 
C 4.5 -19.3125 5 -19.21875 5.09375 -18.71875 
L 12.09375 9.15625 
C 13.09375 3.578125 18.59375 -1 24.5 -1 
C 38.796875 -1 52.296875 10.15625 52.296875 24.984375 
C 52.296875 28.765625 51.40625 32.546875 49.296875 35.734375 
C 48.09375 37.625 46.59375 39.015625 45 40.21875 
C 52.203125 43.984375 56.59375 50 56.59375 57.828125 
z
M 39.203125 40.3125 
C 37.59375 39.71875 36 39.515625 34.09375 39.515625 
C 32.703125 39.515625 31.40625 39.421875 29.59375 40.015625 
C 30.59375 40.71875 32.09375 40.90625 34.203125 40.90625 
C 36 40.90625 37.796875 40.71875 39.203125 40.3125 
z
M 51.40625 58.71875 
C 51.40625 53.28125 48.703125 45.359375 42.203125 41.703125 
C 40.296875 42.46875 37.703125 43 35.5 43 
C 33.40625 43 27.40625 43 27.40625 39.921875 
C 27.40625 37.328125 32.90625 37.328125 34.59375 37.328125 
C 37.203125 37.328125 39.5 38 41.90625 38.8125 
C 45.09375 36.21875 46.5 32.828125 46.5 27.859375 
C 46.5 22.078125 44.90625 17.421875 43 13.140625 
C 39.703125 5.765625 31.90625 1 25 1 
C 17.703125 1 13.90625 6.75 13.90625 13.5 
C 13.90625 14.40625 13.90625 15.703125 14.296875 17.171875 
L 20.796875 43.296875 
C 24.09375 56.296875 32.5 68.015625 42.203125 68.015625 
C 49.40625 68.015625 51.40625 63.0625 51.40625 58.71875 
z
" id="CMMI12-12"/>
     </defs>
     <g transform="translate(161.820466 254.244492)scale(0.17 -0.17)">
      <use transform="scale(0.996264)" xlink:href="#CMR17-105"/>
      <use transform="translate(24.871058 0)scale(0.996264)" xlink:href="#CMR17-110"/>
      <use transform="translate(73.163974 0)scale(0.996264)" xlink:href="#CMR17-118"/>
      <use transform="translate(118.854436 0)scale(0.996264)" xlink:href="#CMR17-101"/>
      <use transform="translate(159.340097 0)scale(0.996264)" xlink:href="#CMR17-114"/>
      <use transform="translate(194.620865 0)scale(0.996264)" xlink:href="#CMR17-115"/>
      <use transform="translate(230.422202 0)scale(0.996264)" xlink:href="#CMR17-101"/>
      <use transform="translate(300.983829 0)scale(0.996264)" xlink:href="#CMR17-116"/>
      <use transform="translate(336.264597 0)scale(0.996264)" xlink:href="#CMR17-101"/>
      <use transform="translate(376.750257 0)scale(0.996264)" xlink:href="#CMR17-109"/>
      <use transform="translate(453.669847 0)scale(0.996264)" xlink:href="#CMR17-112"/>
      <use transform="translate(507.167656 0)scale(0.996264)" xlink:href="#CMR17-101"/>
      <use transform="translate(547.653316 0)scale(0.996264)" xlink:href="#CMR17-114"/>
      <use transform="translate(582.934084 0)scale(0.996264)" xlink:href="#CMR17-97"/>
      <use transform="translate(628.624561 0)scale(0.996264)" xlink:href="#CMR17-116"/>
      <use transform="translate(663.905329 0)scale(0.996264)" xlink:href="#CMR17-117"/>
      <use transform="translate(714.800699 0)scale(0.996264)" xlink:href="#CMR17-114"/>
      <use transform="translate(750.081466 0)scale(0.996264)" xlink:href="#CMR17-101"/>
      <use transform="translate(820.643093 0)scale(0.996264)" xlink:href="#CMMI12-12"/>
     </g>
    </g>
   </g>
   <g id="matplotlib.axis_2">
    <g id="ytick_1">
     <g id="line2d_19">
      <path clip-path="url(#pb9816acb9b)" d="M 65.081944 205.476082 
L 407.43021 205.476082 
" style="fill:none;opacity:0.1;stroke:#000000;stroke-linecap:square;stroke-width:0.5;"/>
     </g>
     <g id="line2d_20">
      <defs>
       <path d="M 0 0 
L 6 0 
" id="m6ab3ce6a42" style="stroke:#000000;"/>
      </defs>
      <g>
       <use style="stroke:#000000;" x="65.081944" xlink:href="#m6ab3ce6a42" y="205.476082"/>
      </g>
     </g>
     <g id="line2d_21">
      <defs>
       <path d="M 0 0 
L -6 0 
" id="m9d939c3144" style="stroke:#000000;"/>
      </defs>
      <g>
       <use style="stroke:#000000;" x="407.43021" xlink:href="#m9d939c3144" y="205.476082"/>
      </g>
     </g>
     <g id="text_8">
      <!-- -150 -->
      <defs>
       <path d="M 25.5 19 
L 25.5 23.375 
L 0.40625 23.375 
L 0.40625 19 
z
" id="CMR17-45"/>
      </defs>
      <g transform="translate(26.255739 210.664945)scale(0.15 -0.15)">
       <use transform="scale(0.996264)" xlink:href="#CMR17-45"/>
       <use transform="translate(30.075966 0)scale(0.996264)" xlink:href="#CMR17-49"/>
       <use transform="translate(75.766443 0)scale(0.996264)" xlink:href="#CMR17-53"/>
       <use transform="translate(121.456921 0)scale(0.996264)" xlink:href="#CMR17-48"/>
      </g>
     </g>
    </g>
    <g id="ytick_2">
     <g id="line2d_22">
      <path clip-path="url(#pb9816acb9b)" d="M 65.081944 166.858638 
L 407.43021 166.858638 
" style="fill:none;opacity:0.1;stroke:#000000;stroke-linecap:square;stroke-width:0.5;"/>
     </g>
     <g id="line2d_23">
      <g>
       <use style="stroke:#000000;" x="65.081944" xlink:href="#m6ab3ce6a42" y="166.858638"/>
      </g>
     </g>
     <g id="line2d_24">
      <g>
       <use style="stroke:#000000;" x="407.43021" xlink:href="#m9d939c3144" y="166.858638"/>
      </g>
     </g>
     <g id="text_9">
      <!-- -100 -->
      <g transform="translate(26.255739 172.047501)scale(0.15 -0.15)">
       <use transform="scale(0.996264)" xlink:href="#CMR17-45"/>
       <use transform="translate(30.075966 0)scale(0.996264)" xlink:href="#CMR17-49"/>
       <use transform="translate(75.766443 0)scale(0.996264)" xlink:href="#CMR17-48"/>
       <use transform="translate(121.456921 0)scale(0.996264)" xlink:href="#CMR17-48"/>
      </g>
     </g>
    </g>
    <g id="ytick_3">
     <g id="line2d_25">
      <path clip-path="url(#pb9816acb9b)" d="M 65.081944 128.241194 
L 407.43021 128.241194 
" style="fill:none;opacity:0.1;stroke:#000000;stroke-linecap:square;stroke-width:0.5;"/>
     </g>
     <g id="line2d_26">
      <g>
       <use style="stroke:#000000;" x="65.081944" xlink:href="#m6ab3ce6a42" y="128.241194"/>
      </g>
     </g>
     <g id="line2d_27">
      <g>
       <use style="stroke:#000000;" x="407.43021" xlink:href="#m9d939c3144" y="128.241194"/>
      </g>
     </g>
     <g id="text_10">
      <!-- -50 -->
      <g transform="translate(33.571977 133.430057)scale(0.15 -0.15)">
       <use transform="scale(0.996264)" xlink:href="#CMR17-45"/>
       <use transform="translate(30.075966 0)scale(0.996264)" xlink:href="#CMR17-53"/>
       <use transform="translate(75.766443 0)scale(0.996264)" xlink:href="#CMR17-48"/>
      </g>
     </g>
    </g>
    <g id="ytick_4">
     <g id="line2d_28">
      <path clip-path="url(#pb9816acb9b)" d="M 65.081944 89.62375 
L 407.43021 89.62375 
" style="fill:none;opacity:0.1;stroke:#000000;stroke-linecap:square;stroke-width:0.5;"/>
     </g>
     <g id="line2d_29">
      <g>
       <use style="stroke:#000000;" x="65.081944" xlink:href="#m6ab3ce6a42" y="89.62375"/>
      </g>
     </g>
     <g id="line2d_30">
      <g>
       <use style="stroke:#000000;" x="407.43021" xlink:href="#m9d939c3144" y="89.62375"/>
      </g>
     </g>
     <g id="text_11">
      <!-- 0 -->
      <g transform="translate(45.765706 94.812613)scale(0.15 -0.15)">
       <use transform="scale(0.996264)" xlink:href="#CMR17-48"/>
      </g>
     </g>
    </g>
    <g id="ytick_5">
     <g id="line2d_31">
      <path clip-path="url(#pb9816acb9b)" d="M 65.081944 51.006306 
L 407.43021 51.006306 
" style="fill:none;opacity:0.1;stroke:#000000;stroke-linecap:square;stroke-width:0.5;"/>
     </g>
     <g id="line2d_32">
      <g>
       <use style="stroke:#000000;" x="65.081944" xlink:href="#m6ab3ce6a42" y="51.006306"/>
      </g>
     </g>
     <g id="line2d_33">
      <g>
       <use style="stroke:#000000;" x="407.43021" xlink:href="#m9d939c3144" y="51.006306"/>
      </g>
     </g>
     <g id="text_12">
      <!-- 50 -->
      <g transform="translate(38.449469 56.195169)scale(0.15 -0.15)">
       <use transform="scale(0.996264)" xlink:href="#CMR17-53"/>
       <use transform="translate(45.690477 0)scale(0.996264)" xlink:href="#CMR17-48"/>
      </g>
     </g>
    </g>
    <g id="ytick_6">
     <g id="line2d_34">
      <path clip-path="url(#pb9816acb9b)" d="M 65.081944 12.388862 
L 407.43021 12.388862 
" style="fill:none;opacity:0.1;stroke:#000000;stroke-linecap:square;stroke-width:0.5;"/>
     </g>
     <g id="line2d_35">
      <g>
       <use style="stroke:#000000;" x="65.081944" xlink:href="#m6ab3ce6a42" y="12.388862"/>
      </g>
     </g>
     <g id="line2d_36">
      <g>
       <use style="stroke:#000000;" x="407.43021" xlink:href="#m9d939c3144" y="12.388862"/>
      </g>
     </g>
     <g id="text_13">
      <!-- 100 -->
      <g transform="translate(31.133231 17.577725)scale(0.15 -0.15)">
       <use transform="scale(0.996264)" xlink:href="#CMR17-49"/>
       <use transform="translate(45.690477 0)scale(0.996264)" xlink:href="#CMR17-48"/>
       <use transform="translate(91.380954 0)scale(0.996264)" xlink:href="#CMR17-48"/>
      </g>
     </g>
    </g>
    <g id="text_14">
     <!-- log singular values -->
     <defs>
      <path d="M 15.296875 68.6875 
L 3.40625 67.59375 
L 3.40625 65 
C 9.296875 65 10.203125 64.40625 10.203125 59.640625 
L 10.203125 6.65625 
C 10.203125 2.875 9.796875 2.390625 3.40625 2.390625 
L 3.40625 -0.203125 
C 5.796875 0 10.203125 0 12.703125 0 
C 15.296875 0 19.703125 0 22.09375 -0.203125 
L 22.09375 2.390625 
C 15.703125 2.390625 15.296875 2.78125 15.296875 6.65625 
z
" id="CMR17-108"/>
      <path d="M 43.09375 21.1875 
C 43.09375 34 33.796875 44 22.90625 44 
C 12 44 2.703125 34 2.703125 21.1875 
C 2.703125 8.609375 12 -1 22.90625 -1 
C 33.796875 -1 43.09375 8.609375 43.09375 21.1875 
z
M 22.90625 0.796875 
C 18.203125 0.796875 14.203125 3.59375 11.90625 7.5 
C 9.40625 11.984375 9.09375 17.59375 9.09375 22 
C 9.09375 26.203125 9.296875 31.40625 11.90625 35.90625 
C 13.90625 39.203125 17.796875 42.40625 22.90625 42.40625 
C 27.40625 42.40625 31.203125 39.90625 33.59375 36.40625 
C 36.703125 31.703125 36.703125 25.109375 36.703125 22 
C 36.703125 18.09375 36.5 12.109375 33.796875 7.296875 
C 31 2.703125 26.703125 0.796875 22.90625 0.796875 
z
" id="CMR17-111"/>
      <path d="M 11.09375 18.1875 
C 13 16.6875 16.296875 15 20.296875 15 
C 28.203125 15 35 21.203125 35 29.5 
C 35 32.09375 34.203125 36.09375 31.203125 39.203125 
C 34 42.0625 38.09375 43 40.40625 43 
C 40.796875 43 41.40625 43 41.90625 42.71875 
C 41.5 42.625 40.59375 42.234375 40.59375 40.703125 
C 40.59375 39.484375 41.5 38.609375 42.796875 38.609375 
C 44.296875 38.609375 45.09375 39.578125 45.09375 40.84375 
C 45.09375 42.671875 43.59375 44.59375 40.40625 44.59375 
C 36.40625 44.59375 32.90625 42.78125 30.09375 40.3125 
C 27.09375 43.015625 23.5 44 20.296875 44 
C 12.40625 44 5.59375 37.796875 5.59375 29.5 
C 5.59375 23.78125 8.90625 20.1875 9.90625 19.1875 
C 6.90625 15.6875 6.90625 11.609375 6.90625 11.109375 
C 6.90625 8.515625 7.90625 4.71875 11.296875 2.625 
C 6.09375 1.328125 2 -2.640625 2 -7.59375 
C 2 -14.734375 11.5 -20 22.90625 -20 
C 33.90625 -20 43.796875 -14.9375 43.796875 -7.484375 
C 43.796875 6 29 6 21.296875 6 
C 19 6 14.90625 6 14.40625 6.109375 
C 11.296875 6.609375 9.203125 9.40625 9.203125 12.90625 
C 9.203125 13.796875 9.203125 16 11.09375 18.1875 
z
M 20.296875 16.6875 
C 11.5 16.6875 11.5 27.5 11.5 29.515625 
C 11.5 31.5 11.5 42.3125 20.296875 42.3125 
C 29.09375 42.3125 29.09375 31.5 29.09375 29.515625 
C 29.09375 27.5 29.09375 16.6875 20.296875 16.6875 
z
M 22.90625 -18.296875 
C 12.90625 -18.296875 6 -13.046875 6 -7.59375 
C 6 -4.515625 7.703125 -1.640625 9.90625 -0.0625 
C 12.40625 1.625 13.40625 1.625 20.203125 1.625 
C 28.40625 1.625 39.796875 1.625 39.796875 -7.59375 
C 39.796875 -13.046875 32.90625 -18.296875 22.90625 -18.296875 
z
" id="CMR17-103"/>
     </defs>
     <g transform="translate(18.961452 174.948863)rotate(-90)scale(0.17 -0.17)">
      <use transform="scale(0.996264)" xlink:href="#CMR17-108"/>
      <use transform="translate(24.871058 0)scale(0.996264)" xlink:href="#CMR17-111"/>
      <use transform="translate(70.561536 0)scale(0.996264)" xlink:href="#CMR17-103"/>
      <use transform="translate(146.327979 0)scale(0.996264)" xlink:href="#CMR17-115"/>
      <use transform="translate(182.129317 0)scale(0.996264)" xlink:href="#CMR17-105"/>
      <use transform="translate(207.000375 0)scale(0.996264)" xlink:href="#CMR17-110"/>
      <use transform="translate(257.895745 0)scale(0.996264)" xlink:href="#CMR17-103"/>
      <use transform="translate(303.586222 0)scale(0.996264)" xlink:href="#CMR17-117"/>
      <use transform="translate(354.481592 0)scale(0.996264)" xlink:href="#CMR17-108"/>
      <use transform="translate(379.35265 0)scale(0.996264)" xlink:href="#CMR17-97"/>
      <use transform="translate(425.043127 0)scale(0.996264)" xlink:href="#CMR17-114"/>
      <use transform="translate(490.399862 0)scale(0.996264)" xlink:href="#CMR17-118"/>
      <use transform="translate(533.487961 0)scale(0.996264)" xlink:href="#CMR17-97"/>
      <use transform="translate(579.178438 0)scale(0.996264)" xlink:href="#CMR17-108"/>
      <use transform="translate(604.049496 0)scale(0.996264)" xlink:href="#CMR17-117"/>
      <use transform="translate(654.944866 0)scale(0.996264)" xlink:href="#CMR17-101"/>
      <use transform="translate(695.430527 0)scale(0.996264)" xlink:href="#CMR17-115"/>
     </g>
    </g>
   </g>
   <g id="line2d_37">
    <path clip-path="url(#pb9816acb9b)" d="M 71.928909 89.461557 
L 407.43021 8.527118 
L 407.43021 8.527118 
" style="fill:none;stroke:#ca0020;stroke-linecap:round;stroke-width:1.5;"/>
   </g>
   <g id="line2d_38">
    <path clip-path="url(#pb9816acb9b)" d="M 71.928909 89.5068 
L 407.43021 31.148693 
L 407.43021 31.148693 
" style="fill:none;stroke:#ca0020;stroke-linecap:round;stroke-width:1.5;"/>
   </g>
   <g id="patch_3">
    <path d="M 65.081944 213.199571 
L 65.081944 12.388862 
" style="fill:none;stroke:#000000;stroke-linecap:square;stroke-linejoin:miter;"/>
   </g>
   <g id="patch_4">
    <path d="M 407.43021 213.199571 
L 407.43021 12.388862 
" style="fill:none;stroke:#000000;stroke-linecap:square;stroke-linejoin:miter;"/>
   </g>
   <g id="patch_5">
    <path d="M 65.081944 213.199571 
L 407.43021 213.199571 
" style="fill:none;stroke:#000000;stroke-linecap:square;stroke-linejoin:miter;"/>
   </g>
   <g id="patch_6">
    <path d="M 65.081944 12.388862 
L 407.43021 12.388862 
" style="fill:none;stroke:#000000;stroke-linecap:square;stroke-linejoin:miter;"/>
   </g>
   <g id="line2d_39">
    <path clip-path="url(#pb9816acb9b)" d="M 71.928909 89.5068 
L 407.43021 31.148693 
L 407.43021 31.148693 
" style="fill:none;stroke:#ca0020;stroke-linecap:round;stroke-width:1.5;"/>
   </g>
   <g id="line2d_40">
    <path clip-path="url(#pb9816acb9b)" d="M 71.928909 89.616027 
L 301.871684 86.974594 
L 301.871684 86.974594 
" style="fill:none;stroke:#ca0020;stroke-linecap:round;stroke-width:1.5;"/>
   </g>
   <g id="line2d_41">
    <path clip-path="url(#pb9816acb9b)" d="M 71.928909 89.616027 
L 301.871684 86.974594 
L 301.871684 86.974594 
" style="fill:none;stroke:#ca0020;stroke-linecap:round;stroke-width:1.5;"/>
   </g>
   <g id="line2d_42">
    <path clip-path="url(#pb9816acb9b)" d="M 71.928909 89.725253 
L 205.726021 109.924378 
L 205.726021 109.924378 
" style="fill:none;stroke:#ca0020;stroke-linecap:round;stroke-width:1.5;"/>
   </g>
   <g id="line2d_43">
    <path clip-path="url(#pb9816acb9b)" d="M 71.928909 89.725253 
L 205.726021 109.924379 
L 205.726021 109.924379 
" style="fill:none;stroke:#ca0020;stroke-linecap:round;stroke-width:1.5;"/>
   </g>
   <g id="line2d_44">
    <path clip-path="url(#pb9816acb9b)" d="M 71.928909 89.770497 
L 186.22795 114.717365 
L 186.22795 114.717365 
" style="fill:none;stroke:#ca0020;stroke-linecap:round;stroke-width:1.5;"/>
   </g>
   <g id="line2d_45">
    <path clip-path="url(#pb9816acb9b)" d="M 71.928909 89.600732 
L 73.945951 89.376749 
L 77.980035 88.609383 
L 86.72055 86.647315 
L 107.563316 81.666962 
L 407.43021 9.330145 
L 407.43021 9.330145 
" style="fill:none;stroke:#e66101;stroke-linecap:round;stroke-width:1.5;"/>
   </g>
   <g id="line2d_46">
    <path clip-path="url(#pb9816acb9b)" d="M 71.928909 89.600732 
L 73.945951 89.376939 
L 78.652382 88.503031 
L 90.754634 86.257208 
L 125.044346 80.267807 
L 407.43021 31.148693 
L 407.43021 31.148693 
" style="fill:none;stroke:#e66101;stroke-linecap:round;stroke-width:1.5;"/>
   </g>
   <g id="line2d_47">
    <path clip-path="url(#pb9816acb9b)" d="M 71.928909 89.601025 
L 75.290646 89.262919 
L 79.997077 88.601686 
L 91.426981 86.650279 
L 407.43021 31.684044 
L 407.43021 31.684044 
" style="fill:none;stroke:#e66101;stroke-linecap:round;stroke-width:1.5;"/>
   </g>
   <g id="line2d_48">
    <path clip-path="url(#pb9816acb9b)" d="M 71.928909 89.601025 
L 82.014119 88.982425 
L 101.51219 88.740846 
L 407.43021 85.226654 
L 407.43021 85.226654 
" style="fill:none;stroke:#e66101;stroke-linecap:round;stroke-width:1.5;"/>
   </g>
   <g id="line2d_49">
    <path clip-path="url(#pb9816acb9b)" d="M 71.928909 89.631029 
L 82.014119 90.017924 
L 101.51219 89.81154 
L 407.43021 86.297357 
L 407.43021 86.297357 
" style="fill:none;stroke:#e66101;stroke-linecap:round;stroke-width:1.5;"/>
   </g>
   <g id="line2d_50">
    <path clip-path="url(#pb9816acb9b)" d="M 71.928909 89.631029 
L 75.290646 89.891899 
L 79.997077 90.445004 
L 91.426981 92.133812 
L 407.43021 139.839967 
L 407.43021 139.839967 
" style="fill:none;stroke:#e66101;stroke-linecap:round;stroke-width:1.5;"/>
   </g>
   <g id="line2d_51">
    <path clip-path="url(#pb9816acb9b)" d="M 71.928909 89.631322 
L 73.945951 89.808774 
L 78.652382 90.574553 
L 90.754634 92.542331 
L 125.044346 97.743936 
L 407.43021 140.375319 
L 407.43021 140.375319 
" style="fill:none;stroke:#e66101;stroke-linecap:round;stroke-width:1.5;"/>
   </g>
   <g id="line2d_52">
    <path clip-path="url(#pb9816acb9b)" d="M 71.928909 89.631322 
L 73.945951 89.808963 
L 77.980035 90.483648 
L 86.72055 92.244905 
L 107.563316 96.746401 
L 407.43021 162.193867 
L 407.43021 162.193867 
" style="fill:none;stroke:#e66101;stroke-linecap:round;stroke-width:1.5;"/>
   </g>
   <g id="line2d_53">
    <path clip-path="url(#pb9816acb9b)" d="M 71.928909 89.461557 
L 407.43021 8.527118 
L 407.43021 8.527118 
" style="fill:none;stroke:#fdb863;stroke-linecap:round;stroke-width:1.5;"/>
   </g>
   <g id="line2d_54">
    <path clip-path="url(#pb9816acb9b)" d="M 71.928909 89.5068 
L 407.43021 31.148693 
L 407.43021 31.148693 
" style="fill:none;stroke:#fdb863;stroke-linecap:round;stroke-width:1.5;"/>
   </g>
   <g id="line2d_55">
    <path clip-path="url(#pb9816acb9b)" d="M 71.928909 89.5068 
L 407.43021 31.148693 
L 407.43021 31.148693 
" style="fill:none;stroke:#fdb863;stroke-linecap:round;stroke-width:1.5;"/>
   </g>
   <g id="line2d_56">
    <path clip-path="url(#pb9816acb9b)" d="M 71.928909 89.616027 
L 407.43021 85.762006 
L 407.43021 85.762006 
" style="fill:none;stroke:#fdb863;stroke-linecap:round;stroke-width:1.5;"/>
   </g>
   <g id="line2d_57">
    <path clip-path="url(#pb9816acb9b)" d="M 71.928909 89.616027 
L 407.43021 85.762006 
L 407.43021 85.762006 
" style="fill:none;stroke:#fdb863;stroke-linecap:round;stroke-width:1.5;"/>
   </g>
   <g id="line2d_58">
    <path clip-path="url(#pb9816acb9b)" d="M 71.928909 89.725253 
L 407.43021 140.375319 
L 407.43021 140.375319 
" style="fill:none;stroke:#fdb863;stroke-linecap:round;stroke-width:1.5;"/>
   </g>
   <g id="line2d_59">
    <path clip-path="url(#pb9816acb9b)" d="M 71.928909 89.725253 
L 407.43021 140.375319 
L 407.43021 140.375319 
" style="fill:none;stroke:#fdb863;stroke-linecap:round;stroke-width:1.5;"/>
   </g>
   <g id="line2d_60">
    <path clip-path="url(#pb9816acb9b)" d="M 71.928909 89.770497 
L 407.43021 162.996894 
L 407.43021 162.996894 
" style="fill:none;stroke:#fdb863;stroke-linecap:round;stroke-width:1.5;"/>
   </g>
   <g id="line2d_61">
    <path clip-path="url(#pb9816acb9b)" d="M 71.928909 89.461557 
L 407.43021 8.527118 
L 407.43021 8.527118 
" style="fill:none;stroke:#008837;stroke-linecap:round;stroke-width:1.5;"/>
   </g>
   <g id="line2d_62">
    <path clip-path="url(#pb9816acb9b)" d="M 71.928909 89.5068 
L 407.43021 31.148693 
L 407.43021 31.148693 
" style="fill:none;stroke:#008837;stroke-linecap:round;stroke-width:1.5;"/>
   </g>
   <g id="line2d_63">
    <path clip-path="url(#pb9816acb9b)" d="M 71.928909 89.5068 
L 407.43021 31.148693 
L 407.43021 31.148693 
" style="fill:none;stroke:#008837;stroke-linecap:round;stroke-width:1.5;"/>
   </g>
   <g id="line2d_64">
    <path clip-path="url(#pb9816acb9b)" d="M 71.928909 89.616027 
L 239.343386 87.593898 
L 240.015733 87.537443 
L 241.360428 87.614286 
L 242.705122 87.451469 
L 244.049817 87.51415 
L 244.722164 87.360315 
L 246.739206 87.374496 
L 248.083901 87.174598 
L 248.756248 86.847929 
L 252.790332 86.915772 
L 254.135026 86.941686 
L 255.479721 87.082253 
L 256.152068 86.121456 
L 258.16911 86.423718 
L 259.513805 86.285034 
L 263.547889 86.539569 
L 264.220236 86.239358 
L 264.892583 86.088737 
L 266.909625 86.353418 
L 268.25432 86.648873 
L 271.616056 86.719001 
L 277.667182 86.308933 
L 279.011876 86.422639 
L 279.684224 86.425756 
L 281.701266 86.062919 
L 283.04596 86.269143 
L 283.718307 86.271349 
L 284.390655 85.216865 
L 285.735349 85.309101 
L 286.407697 84.99493 
L 287.080044 85.028953 
L 287.752391 84.855434 
L 290.44178 85.039866 
L 291.114128 85.149753 
L 291.786475 84.991796 
L 293.13117 85.11107 
L 293.803517 84.229812 
L 293.803517 84.229812 
" style="fill:none;stroke:#008837;stroke-linecap:round;stroke-width:1.5;"/>
   </g>
   <g id="line2d_65">
    <path clip-path="url(#pb9816acb9b)" d="M 71.928909 89.616027 
L 244.049817 87.682448 
L 244.722164 87.447995 
L 246.739206 87.603831 
L 247.411553 87.843349 
L 248.083901 87.874131 
L 248.756248 87.780387 
L 255.479721 87.931811 
L 256.152068 88.21725 
L 257.496763 88.292521 
L 258.16911 88.791102 
L 259.513805 88.838225 
L 263.547889 88.994663 
L 264.220236 87.714236 
L 265.56493 87.792559 
L 266.909625 87.872886 
L 267.581972 116.392104 
L 268.25432 116.494594 
L 269.599014 116.839279 
L 270.271362 116.858159 
L 270.943709 117.068283 
L 271.616056 117.452862 
L 272.960751 117.547821 
L 274.977793 117.758834 
L 277.667182 117.767751 
L 278.339529 118.345238 
L 279.684224 118.462064 
L 280.356571 117.377777 
L 281.028918 117.457166 
L 281.701266 117.17331 
L 283.04596 117.413734 
L 283.718307 117.204813 
L 284.390655 117.406226 
L 285.063002 117.097869 
L 285.735349 117.162564 
L 287.752391 117.908128 
L 291.114128 118.254482 
L 291.786475 118.102732 
L 292.458822 117.811572 
L 293.13117 117.913487 
L 293.803517 117.334556 
L 293.803517 117.334556 
" style="fill:none;stroke:#008837;stroke-linecap:round;stroke-width:1.5;"/>
   </g>
   <g id="line2d_66">
    <path clip-path="url(#pb9816acb9b)" d="M 71.928909 89.725253 
L 196.985506 108.546064 
L 197.657854 106.801237 
L 221.190009 110.385829 
L 233.29226 112.107398 
L 233.964608 112.589721 
L 235.309302 112.873372 
L 237.998691 113.250126 
L 238.671039 113.491941 
L 239.343386 111.841615 
L 242.032775 112.391675 
L 243.37747 112.844315 
L 244.049817 112.968286 
L 245.394512 112.985434 
L 248.083901 113.592949 
L 248.756248 113.345611 
L 250.100943 113.400866 
L 250.77329 113.372556 
L 254.807374 113.781336 
L 255.479721 113.861233 
L 256.152068 112.271061 
L 257.496763 112.456379 
L 258.16911 116.431237 
L 258.841458 116.608067 
L 260.858499 116.833855 
L 261.530847 116.968672 
L 262.875541 117.599483 
L 263.547889 117.582212 
L 264.220236 118.11258 
L 265.56493 118.372849 
L 266.237278 115.911938 
L 266.909625 116.022978 
L 267.581972 140.471389 
L 270.271362 141.038069 
L 270.943709 140.755763 
L 271.616056 140.895485 
L 272.288403 140.836733 
L 272.960751 140.451202 
L 273.633098 140.660793 
L 274.305445 140.725358 
L 274.977793 139.628257 
L 275.65014 139.668561 
L 276.322487 140.015989 
L 276.994834 139.952109 
L 277.667182 140.034439 
L 278.339529 139.860197 
L 281.028918 140.28562 
L 281.701266 140.607984 
L 283.718307 140.861247 
L 284.390655 140.794371 
L 287.080044 141.134055 
L 290.44178 141.021859 
L 291.114128 141.607943 
L 291.786475 141.648765 
L 292.458822 141.572714 
L 293.803517 141.907003 
L 293.803517 141.907003 
" style="fill:none;stroke:#008837;stroke-linecap:round;stroke-width:1.5;"/>
   </g>
   <g id="line2d_67">
    <path clip-path="url(#pb9816acb9b)" d="M 71.928909 89.725253 
L 155.299974 102.311642 
L 155.972321 102.557932 
L 196.985506 108.766336 
L 198.330201 108.869096 
L 199.002548 108.97404 
L 199.674896 108.824378 
L 216.483578 112.284206 
L 225.89644 113.958568 
L 238.671039 116.139039 
L 239.343386 115.965626 
L 240.015733 116.303795 
L 241.360428 116.391743 
L 242.032775 116.341435 
L 242.705122 116.447441 
L 243.37747 117.414935 
L 244.049817 117.470302 
L 244.722164 117.814906 
L 246.066859 118.035683 
L 247.411553 118.394898 
L 252.790332 119.1467 
L 253.462679 119.043619 
L 254.135026 119.142653 
L 254.807374 119.56707 
L 255.479721 119.655293 
L 256.152068 118.458112 
L 257.496763 118.54028 
L 258.16911 140.413795 
L 260.186152 140.583975 
L 262.203194 140.868584 
L 262.875541 141.46107 
L 264.220236 141.602171 
L 264.892583 141.683086 
L 265.56493 142.312392 
L 266.237278 140.50555 
L 266.909625 140.408137 
L 266.909625 140.408137 
" style="fill:none;stroke:#008837;stroke-linecap:round;stroke-width:1.5;"/>
   </g>
   <g id="line2d_68">
    <path clip-path="url(#pb9816acb9b)" d="M 71.928909 89.770497 
L 155.299974 107.967036 
L 155.972321 107.945723 
L 196.985506 116.880279 
L 197.657854 114.783308 
L 199.002548 115.061816 
L 199.674896 114.62414 
L 215.138883 117.104988 
L 223.879398 118.732167 
L 229.258177 119.893943 
L 235.309302 121.051759 
L 238.671039 121.616636 
L 239.343386 122.639893 
L 240.688081 122.704473 
L 241.360428 122.807976 
L 242.032775 122.456889 
L 242.705122 122.598583 
L 243.37747 123.050906 
L 246.066859 123.753842 
L 246.739206 123.827109 
L 248.756248 124.354309 
L 250.100943 124.538592 
L 251.445637 124.875125 
L 255.479721 125.484462 
L 256.152068 178.830683 
L 256.824416 178.873551 
L 257.496763 179.130318 
L 257.496763 179.130318 
" style="fill:none;stroke:#008837;stroke-linecap:round;stroke-width:1.5;"/>
   </g>
   <g id="line2d_69">
    <path clip-path="url(#pb9816acb9b)" d="M 71.928909 89.461557 
L 407.43021 8.527118 
L 407.43021 8.527118 
" style="fill:none;stroke:#5e3c99;stroke-linecap:round;stroke-width:1.5;"/>
   </g>
   <g id="line2d_70">
    <path clip-path="url(#pb9816acb9b)" d="M 71.928909 89.5068 
L 407.43021 31.148693 
L 407.43021 31.148693 
" style="fill:none;stroke:#5e3c99;stroke-linecap:round;stroke-width:1.5;"/>
   </g>
   <g id="line2d_71">
    <path clip-path="url(#pb9816acb9b)" d="M 71.928909 89.5068 
L 407.43021 31.148693 
L 407.43021 31.148693 
" style="fill:none;stroke:#5e3c99;stroke-linecap:round;stroke-width:1.5;"/>
   </g>
   <g id="line2d_72">
    <path clip-path="url(#pb9816acb9b)" d="M 71.928909 89.616027 
L 237.326344 87.621976 
L 239.343386 87.53648 
L 240.015733 87.341675 
L 242.705122 87.212374 
L 243.37747 87.307977 
L 244.049817 87.096699 
L 247.411553 87.107484 
L 248.756248 86.980156 
L 251.445637 87.303775 
L 252.117985 86.405829 
L 252.790332 86.083304 
L 254.807374 86.147955 
L 255.479721 85.89828 
L 256.152068 85.866639 
L 257.496763 85.627697 
L 258.16911 85.740709 
L 258.841458 85.146849 
L 260.858499 85.47413 
L 261.530847 84.862518 
L 262.203194 84.487658 
L 262.875541 84.494602 
L 263.547889 84.671177 
L 266.909625 84.711355 
L 268.25432 84.389602 
L 269.599014 84.792103 
L 270.943709 84.761387 
L 271.616056 84.038573 
L 272.288403 84.111736 
L 273.633098 83.917956 
L 275.65014 83.883692 
L 276.322487 84.390215 
L 277.667182 84.484491 
L 278.339529 84.024416 
L 279.011876 82.852756 
L 279.684224 81.992433 
L 281.701266 82.097571 
L 283.04596 82.073411 
L 283.718307 82.582639 
L 284.390655 82.78369 
L 285.063002 82.613204 
L 285.735349 81.463217 
L 287.752391 81.538152 
L 288.424738 80.276327 
L 289.097086 79.981817 
L 289.769433 79.936609 
L 290.44178 79.597474 
L 291.786475 79.646094 
L 292.458822 79.044548 
L 294.475864 79.069237 
L 295.148211 79.50152 
L 297.165253 79.653344 
L 297.837601 79.446156 
L 298.509948 79.478153 
L 299.182295 79.178155 
L 299.854642 79.143685 
L 300.52699 79.313282 
L 304.561074 79.233421 
L 307.92281 79.609281 
L 308.595157 79.30787 
L 309.267505 79.238119 
L 311.284547 79.511807 
L 311.956894 76.815369 
L 312.629241 76.500722 
L 315.990978 76.615085 
L 316.663325 76.418268 
L 318.008019 76.379198 
L 318.680367 75.937215 
L 321.369756 75.789602 
L 322.042103 75.353613 
L 322.714451 75.141459 
L 323.386798 75.175602 
L 324.059145 74.951243 
L 324.731492 74.401958 
L 325.40384 74.650784 
L 326.076187 74.714717 
L 327.420882 75.421758 
L 328.093229 74.887799 
L 329.437923 74.880474 
L 330.110271 74.915004 
L 330.782618 74.835498 
L 331.454965 74.937476 
L 332.127313 74.874663 
L 332.79966 74.224474 
L 334.816702 74.411179 
L 335.489049 72.245402 
L 336.161396 72.325909 
L 337.506091 72.323501 
L 339.523133 72.542164 
L 340.19548 71.859054 
L 340.867827 71.652738 
L 342.212522 71.865149 
L 342.884869 71.861586 
L 343.557217 71.211474 
L 344.229564 71.281784 
L 345.574259 71.126627 
L 346.246606 70.187396 
L 346.918953 70.112788 
L 347.5913 70.448191 
L 350.953037 70.593109 
L 351.625384 70.860319 
L 352.297732 70.927531 
L 352.970079 70.842594 
L 354.314773 71.002989 
L 354.987121 72.077132 
L 357.004163 72.252152 
L 358.348857 69.994725 
L 359.693552 70.301616 
L 360.365899 69.524691 
L 361.038246 69.616834 
L 361.710594 69.272946 
L 362.382941 68.442663 
L 363.055288 68.450607 
L 364.399983 68.236732 
L 365.744677 68.330501 
L 366.417025 67.897103 
L 368.434067 67.91502 
L 369.106414 67.77707 
L 369.778761 67.829669 
L 370.451108 67.709189 
L 373.140498 67.72553 
L 374.485192 67.752647 
L 375.15754 67.337954 
L 375.829887 67.234549 
L 376.502234 66.678394 
L 377.846929 66.713612 
L 378.519276 65.851161 
L 380.536318 65.863747 
L 381.208665 66.60377 
L 381.881012 66.826199 
L 382.55336 66.743296 
L 383.225707 66.909363 
L 383.898054 66.896209 
L 384.570402 66.631405 
L 385.915096 65.389029 
L 387.932138 65.462483 
L 390.621527 65.538677 
L 390.621527 65.538677 
" style="fill:none;stroke:#5e3c99;stroke-linecap:round;stroke-width:1.5;"/>
   </g>
   <g id="line2d_73">
    <path clip-path="url(#pb9816acb9b)" d="M 71.928909 89.616027 
L 237.326344 87.776598 
L 238.671039 87.797594 
L 240.688081 87.838577 
L 243.37747 87.873308 
L 244.049817 87.614784 
L 244.722164 87.646335 
L 246.066859 87.317994 
L 248.756248 87.510504 
L 249.428595 87.894318 
L 250.77329 88.04712 
L 251.445637 88.532179 
L 252.117985 89.583789 
L 252.790332 89.332118 
L 255.479721 89.711775 
L 256.152068 89.822453 
L 256.824416 89.736014 
L 258.16911 89.988103 
L 261.530847 90.458547 
L 262.203194 90.751832 
L 265.56493 90.897894 
L 266.237278 90.895642 
L 266.909625 90.598286 
L 267.581972 90.582068 
L 268.25432 90.827727 
L 268.926667 90.875711 
L 269.599014 90.787392 
L 270.271362 91.000103 
L 270.943709 90.526889 
L 271.616056 90.790911 
L 273.633098 90.962003 
L 274.305445 90.731647 
L 275.65014 90.848494 
L 276.322487 88.62406 
L 276.994834 88.95706 
L 284.390655 89.991625 
L 285.063002 90.019816 
L 285.735349 89.590105 
L 287.752391 89.702561 
L 288.424738 89.508647 
L 291.786475 89.990445 
L 293.13117 90.188066 
L 293.803517 89.684132 
L 294.475864 89.724671 
L 295.148211 89.455579 
L 295.820559 89.375336 
L 296.492906 88.966028 
L 297.165253 89.059832 
L 297.837601 113.916631 
L 298.509948 113.800957 
L 299.182295 114.178765 
L 299.854642 114.270663 
L 300.52699 114.739784 
L 301.871684 114.958161 
L 303.216379 115.157803 
L 303.888726 109.504514 
L 304.561074 109.503588 
L 305.233421 109.193886 
L 306.578115 109.228415 
L 307.250463 109.554932 
L 307.92281 109.664477 
L 308.595157 109.658908 
L 309.267505 109.433827 
L 309.939852 109.768211 
L 310.612199 108.163008 
L 311.284547 108.190874 
L 311.956894 198.903633 
L 312.629241 198.730559 
L 315.31863 198.748857 
L 315.990978 198.582356 
L 317.335672 198.619928 
L 318.680367 198.498039 
L 320.025061 198.617898 
L 320.697409 198.458782 
L 321.369756 198.499835 
L 322.042103 198.739546 
L 322.714451 198.794482 
L 323.386798 197.441002 
L 324.731492 197.494186 
L 326.076187 197.55303 
L 326.748534 197.902519 
L 327.420882 197.880551 
L 328.093229 198.071336 
L 334.816702 197.888099 
L 334.816702 197.888099 
" style="fill:none;stroke:#5e3c99;stroke-linecap:round;stroke-width:1.5;"/>
   </g>
   <g id="line2d_74">
    <path clip-path="url(#pb9816acb9b)" d="M 71.928909 89.725253 
L 163.368142 103.529672 
L 164.040489 102.074366 
L 185.555602 105.458935 
L 192.951423 106.580141 
L 193.62377 106.51183 
L 204.381327 108.140526 
L 205.053674 108.384221 
L 234.636955 112.915803 
L 235.981649 113.150916 
L 240.015733 113.689953 
L 240.688081 113.988256 
L 243.37747 114.395528 
L 244.049817 114.788453 
L 245.394512 114.93803 
L 246.066859 115.133118 
L 248.756248 115.339586 
L 249.428595 115.636717 
L 250.100943 115.767586 
L 250.77329 116.261423 
L 251.445637 116.431382 
L 252.790332 116.049885 
L 254.807374 116.26439 
L 258.16911 116.368636 
L 258.841458 116.190659 
L 260.858499 116.260937 
L 261.530847 116.553363 
L 262.875541 116.678804 
L 263.547889 118.139419 
L 264.220236 117.673943 
L 266.237278 117.950994 
L 267.581972 118.05689 
L 276.994834 119.795226 
L 277.667182 120.212285 
L 278.339529 120.043285 
L 279.684224 120.490633 
L 281.701266 120.773921 
L 283.04596 120.646527 
L 283.718307 120.741961 
L 284.390655 121.029163 
L 285.735349 120.962797 
L 287.752391 121.254339 
L 289.097086 120.153344 
L 289.769433 120.207647 
L 290.44178 120.075996 
L 292.458822 120.238589 
L 293.13117 120.295255 
L 293.803517 119.992127 
L 294.475864 120.052435 
L 295.148211 119.849308 
L 295.820559 119.867739 
L 296.492906 120.419208 
L 297.165253 120.520302 
L 297.837601 202.462811 
L 299.182295 202.766945 
L 300.52699 203.248293 
L 301.199337 203.28138 
L 301.871684 203.545659 
L 303.216379 203.700764 
L 303.888726 196.502623 
L 304.561074 196.63937 
L 305.233421 197.302956 
L 307.250463 197.445843 
L 307.92281 197.322379 
L 309.267505 197.788923 
L 309.939852 197.816645 
L 310.612199 198.836176 
L 311.284547 198.894356 
L 311.284547 198.894356 
" style="fill:none;stroke:#5e3c99;stroke-linecap:round;stroke-width:1.5;"/>
   </g>
   <g id="line2d_75">
    <path clip-path="url(#pb9816acb9b)" d="M 71.928909 89.725253 
L 163.368142 103.529704 
L 164.040489 103.268424 
L 172.108656 104.612643 
L 188.917339 107.236821 
L 237.998691 114.771791 
L 239.343386 115.111005 
L 240.688081 115.555431 
L 241.360428 115.693298 
L 243.37747 115.649528 
L 244.049817 116.312594 
L 245.394512 116.639617 
L 246.066859 116.405639 
L 246.739206 115.983738 
L 250.100943 116.490936 
L 250.77329 116.95791 
L 251.445637 117.086877 
L 252.117985 117.356127 
L 252.790332 117.071861 
L 254.135026 117.112407 
L 254.807374 117.785632 
L 259.513805 118.824096 
L 260.858499 118.939355 
L 261.530847 119.35583 
L 262.875541 119.497637 
L 263.547889 119.438016 
L 264.220236 120.436496 
L 267.581972 120.883638 
L 268.25432 122.490066 
L 271.616056 122.581414 
L 274.977793 122.550837 
L 275.65014 122.751362 
L 276.322487 123.261951 
L 277.667182 123.360753 
L 278.339529 123.349042 
L 279.011876 123.208701 
L 281.028918 123.303444 
L 282.373613 123.316082 
L 285.063002 123.542879 
L 286.407697 123.752246 
L 287.752391 123.905776 
L 289.097086 124.490495 
L 293.803517 124.985648 
L 297.165253 125.476245 
L 297.165253 125.476245 
" style="fill:none;stroke:#5e3c99;stroke-linecap:round;stroke-width:1.5;"/>
   </g>
   <g id="line2d_76">
    <path clip-path="url(#pb9816acb9b)" d="M 71.928909 89.770497 
L 163.368142 109.727943 
L 164.040489 109.245109 
L 171.436309 110.66692 
L 182.193866 112.874663 
L 192.951423 115.195755 
L 193.62377 114.920097 
L 234.636955 123.832449 
L 235.309302 123.860315 
L 240.015733 124.928195 
L 241.360428 125.852851 
L 242.705122 126.316619 
L 244.049817 126.882104 
L 245.394512 127.163819 
L 246.066859 127.62228 
L 247.411553 128.157825 
L 248.756248 128.482911 
L 251.445637 128.690161 
L 252.117985 129.208843 
L 252.790332 129.873237 
L 256.824416 130.570226 
L 257.496763 130.902431 
L 259.513805 131.104038 
L 260.858499 131.318312 
L 261.530847 132.571607 
L 263.547889 133.267635 
L 264.220236 133.706303 
L 265.56493 133.933463 
L 266.909625 134.368724 
L 267.581972 134.500317 
L 268.25432 134.838718 
L 270.271362 135.268453 
L 270.943709 135.320527 
L 272.288403 135.701863 
L 273.633098 136.013378 
L 274.977793 136.503079 
L 275.65014 136.317396 
L 276.322487 134.922539 
L 276.994834 135.205275 
L 277.667182 135.19615 
L 280.356571 135.700964 
L 287.752391 137.235543 
L 289.097086 138.789323 
L 291.114128 139.159172 
L 291.786475 139.422261 
L 292.458822 139.552043 
L 293.13117 139.870803 
L 293.803517 140.751383 
L 295.820559 140.997384 
L 296.492906 142.286321 
L 297.165253 142.460741 
L 297.165253 142.460741 
" style="fill:none;stroke:#5e3c99;stroke-linecap:round;stroke-width:1.5;"/>
   </g>
   <g id="legend_1">
    <g id="line2d_77">
     <path d="M 76.781944 119.291771 
L 102.781944 119.291771 
" style="fill:none;stroke:#ca0020;stroke-linecap:square;stroke-width:1.5;"/>
    </g>
    <g id="line2d_78"/>
    <g id="text_15">
     <!-- exact -->
     <defs>
      <path d="M 26 23.078125 
C 29 26.96875 32.40625 31.34375 35.203125 34.625 
C 38.5 38.40625 42.296875 40 46.703125 40 
L 46.703125 42.59375 
C 45 42.59375 41.5 42.59375 39.703125 42.59375 
C 37 42.59375 33.90625 42.59375 31.59375 42.6875 
L 31.59375 40.09375 
C 33 39.890625 33.796875 38.890625 33.796875 37.5 
C 33.796875 35.703125 32.796875 34.609375 32.296875 33.921875 
L 24.90625 24.578125 
L 16.09375 36.03125 
C 15.203125 37.125 15.203125 37.3125 15.203125 37.8125 
C 15.203125 39.015625 16.203125 40 17.90625 40 
L 17.90625 42.6875 
C 15.5 42.59375 11.203125 42.59375 8.703125 42.59375 
C 6 42.59375 2.796875 42.59375 0.59375 42.6875 
L 0.59375 40 
C 6 40 7.203125 39.59375 9.59375 36.609375 
L 21.09375 21.796875 
C 21.296875 21.59375 21.796875 21 21.796875 20.703125 
C 21.796875 20.296875 13.09375 9.671875 12 8.28125 
C 7.5 2.890625 2.796875 2.5 0.09375 2.5 
L 0.09375 0 
C 1.796875 0 5.296875 0 7.09375 0 
C 9.09375 0 13.5 0 15.296875 -0.09375 
L 15.296875 2.5 
C 14.703125 2.59375 13.09375 2.796875 13.09375 5.078125 
C 13.09375 6.875 13.90625 7.96875 14.796875 9.15625 
L 23.09375 19.3125 
L 31.796875 8 
C 32.59375 6.90625 33.796875 5.40625 33.796875 4.703125 
C 33.796875 3.296875 32.59375 2.5 31 2.5 
L 31 -0.09375 
C 33.40625 0 37.703125 0 40.203125 0 
C 42.90625 0 46.09375 0 48.296875 -0.09375 
L 48.296875 2.5 
C 43.296875 2.5 41.796875 2.6875 39.40625 5.78125 
z
" id="CMR17-120"/>
      <path d="M 34.90625 35 
C 33 35 30.203125 35 30.203125 31.515625 
C 30.203125 28.71875 32.5 27.921875 33.796875 27.921875 
C 34.5 27.921875 37.40625 28.234375 37.40625 31.625 
C 37.40625 38.546875 30.59375 43.796875 22.90625 43.796875 
C 12.296875 43.796875 3.296875 34.03125 3.296875 21.296875 
C 3.296875 8.0625 12.703125 -1 22.90625 -1 
C 35.296875 -1 38.40625 10.578125 38.40625 11.6875 
C 38.40625 12.09375 38.296875 12.390625 37.59375 12.390625 
C 36.90625 12.390625 36.796875 12.296875 36.40625 10.984375 
C 33.796875 2.8125 28.09375 0.796875 23.796875 0.796875 
C 17.40625 0.796875 9.703125 6.671875 9.703125 21.390625 
C 9.703125 36.53125 17.09375 42 23 42 
C 26.90625 42 32.703125 40.203125 34.90625 35 
z
" id="CMR17-99"/>
     </defs>
     <g transform="translate(113.181944 123.841771)scale(0.13 -0.13)">
      <use transform="scale(0.996264)" xlink:href="#CMR17-101"/>
      <use transform="translate(40.48566 0)scale(0.996264)" xlink:href="#CMR17-120"/>
      <use transform="translate(88.778576 0)scale(0.996264)" xlink:href="#CMR17-97"/>
      <use transform="translate(134.469053 0)scale(0.996264)" xlink:href="#CMR17-99"/>
      <use transform="translate(174.954714 0)scale(0.996264)" xlink:href="#CMR17-116"/>
     </g>
    </g>
    <g id="line2d_79">
     <path d="M 76.781944 137.410083 
L 102.781944 137.410083 
" style="fill:none;stroke:#e66101;stroke-linecap:square;stroke-width:1.5;"/>
    </g>
    <g id="line2d_80"/>
    <g id="text_16">
     <!-- QR -->
     <defs>
      <path d="M 47.296875 1.296875 
C 59.203125 6.375 67.296875 19.3125 67.296875 34.265625 
C 67.296875 54.671875 52.59375 70 36 70 
C 19 70 4.59375 54.5 4.59375 34.359375 
C 4.59375 14.5 19 -1 36 -1 
C 38.296875 -1 41.5 -0.703125 45.296875 0.59375 
C 47 -11.671875 48.09375 -19 56.703125 -19 
C 67.296875 -19 67.796875 -3.328125 67.796875 -0.515625 
C 67.796875 0.5 67.796875 1.1875 67.09375 1.1875 
C 66.59375 1.1875 66.5 0.484375 66.5 0.28125 
C 65.796875 -9.421875 60.40625 -11.4375 57.203125 -11.4375 
C 51.296875 -11.4375 49.203125 -6.15625 47.296875 1.296875 
z
M 30.59375 1.5625 
C 20.203125 4.84375 12 15.890625 12 34.359375 
C 12 57.984375 25.09375 68.203125 35.90625 68.203125 
C 47.09375 68.203125 59.90625 57.59375 59.90625 34.34375 
C 59.90625 17.5625 53.203125 8.234375 46.5 3.96875 
C 45 9.046875 42.59375 15 36.09375 15 
C 31.296875 15 28.59375 10.8125 28.59375 7.03125 
C 28.59375 4.75 29.5 2.859375 30.59375 1.5625 
z
M 44.90625 3 
C 40.90625 0.890625 37.703125 0.890625 36 0.890625 
C 31.5 0.890625 30.203125 4.921875 30.203125 7.09375 
C 30.203125 10.15625 32.296875 13.40625 36.09375 13.40625 
C 42.5 13.40625 44.09375 7.703125 44.90625 3 
z
" id="CMR17-81"/>
      <path d="M 39.203125 33.53125 
C 48.703125 35.4375 56.703125 41.8125 56.703125 49.78125 
C 56.703125 59.140625 46.09375 67.59375 32.09375 67.59375 
L 5.203125 67.59375 
L 5.203125 65 
C 12.09375 65 13.203125 65 13.203125 60.515625 
L 13.203125 6.484375 
C 13.203125 2 12.09375 2 5.203125 2 
L 5.203125 -0.40625 
C 8.09375 -0.40625 13.296875 -0.40625 16.40625 -0.40625 
C 19.5 -0.40625 24.703125 -0.40625 27.59375 -0.40625 
L 27.59375 2 
C 20.703125 2 19.59375 2 19.59375 6.515625 
L 19.59375 33 
L 31.296875 33 
C 37 33 40.203125 30.6875 41.59375 29.390625 
C 45.59375 25.5 45.59375 22.796875 45.59375 16 
C 45.59375 9.296875 45.59375 5.890625 48.59375 2.5 
C 52.40625 -1.59375 57.5 -2 59.703125 -2 
C 67.09375 -2 68.203125 6.1875 68.203125 7.859375 
C 68.203125 8.4375 68.203125 9.140625 67.296875 9.140625 
C 66.5 9.140625 66.40625 8.546875 66.40625 8.15625 
C 65.90625 1.75 63 -0.40625 59.90625 -0.40625 
C 54.40625 -0.40625 53.796875 5.859375 53.203125 11.9375 
C 52.90625 14.03125 52.703125 15.515625 52.5 17.703125 
C 51.90625 22.6875 51.09375 29.953125 39.203125 33.53125 
z
M 31 34.59375 
L 19.59375 34.59375 
L 19.59375 61.140625 
C 19.59375 64.515625 19.796875 65 23.796875 65 
L 31.09375 65 
C 39.40625 65 49.09375 62.140625 49.09375 49.84375 
C 49.09375 37.0625 38.5 34.59375 31 34.59375 
z
" id="CMR17-82"/>
     </defs>
     <g transform="translate(113.181944 141.960083)scale(0.13 -0.13)">
      <use transform="scale(0.996264)" xlink:href="#CMR17-81"/>
      <use transform="translate(71.714788 0)scale(0.996264)" xlink:href="#CMR17-82"/>
     </g>
    </g>
    <g id="line2d_81">
     <path d="M 76.781944 156.141969 
L 102.781944 156.141969 
" style="fill:none;stroke:#fdb863;stroke-linecap:square;stroke-width:1.5;"/>
    </g>
    <g id="line2d_82"/>
    <g id="text_17">
     <!-- SVD (Jacobi) -->
     <defs>
      <path d="M 43.796875 67.03125 
C 43.796875 68.8125 43.703125 68.921875 43.09375 68.921875 
C 42.5 68.921875 42.296875 68.515625 41.90625 67.625 
L 38.90625 61.046875 
C 35.09375 66.515625 29.296875 69 23 69 
C 12.796875 69 4.59375 60.953125 4.59375 50.828125 
C 4.59375 47.75 5.296875 43.375 8.703125 39.21875 
C 12.40625 34.65625 15.90625 33.859375 23.90625 31.765625 
C 26.90625 30.96875 31.90625 29.671875 32.90625 29.28125 
C 38.59375 26.90625 41.59375 20.953125 41.59375 15.390625 
C 41.59375 8.234375 36.5 0.59375 27.796875 0.59375 
C 17.09375 0.59375 7.09375 6.546875 6.40625 20.484375 
C 6.296875 22.078125 6.203125 22.171875 5.5 22.171875 
C 4.703125 22.171875 4.59375 22.078125 4.59375 20.078125 
L 4.59375 -0.015625 
C 4.59375 -1.796875 4.703125 -1.90625 5.296875 -1.90625 
C 6 -1.90625 6.203125 -1.40625 7.59375 1.6875 
C 7.703125 1.984375 7.703125 2.1875 9.59375 5.953125 
C 14.59375 -0.609375 23 -2 27.796875 -2 
C 38.703125 -2 46.40625 7.046875 46.40625 17.5625 
C 46.40625 22.71875 44.5 26.6875 43.40625 28.484375 
C 39.203125 34.84375 34.703125 36.03125 29.90625 37.21875 
C 29.203125 37.53125 29 37.53125 23.40625 38.90625 
C 18 40.296875 15.703125 41 13.203125 43.6875 
C 10.40625 46.75 9.40625 49.9375 9.40625 53.109375 
C 9.40625 59.5625 14.59375 66.609375 23.09375 66.609375 
C 33.703125 66.609375 40.296875 59.15625 41.796875 46.765625 
C 42.09375 44.96875 42.203125 44.875 42.90625 44.875 
C 43.796875 44.875 43.796875 45.171875 43.796875 46.859375 
z
" id="CMR17-83"/>
      <path d="M 59 58.515625 
C 59.90625 60.71875 61.5 65 68.203125 65 
L 68.203125 67.6875 
C 65.90625 67.484375 63.296875 67.484375 60.796875 67.484375 
C 58.40625 67.484375 54.296875 67.484375 52 67.6875 
L 52 65 
C 57 65 57.203125 61.5 57.203125 60.90625 
C 57.203125 59.796875 56.90625 59.109375 56.59375 58.3125 
L 36.90625 6.96875 
L 16.296875 60.71875 
C 16 61.421875 15.796875 61.921875 15.796875 62.40625 
C 15.796875 65 19.796875 65 21.90625 65 
L 21.90625 67.484375 
C 18.703125 67.484375 14 67.484375 10.703125 67.484375 
C 8.09375 67.484375 3.40625 67.484375 1 67.6875 
L 1 65 
C 6.796875 65 7.90625 64.609375 9.09375 61.421875 
L 32.90625 -0.40625 
C 33.40625 -1.796875 33.5 -2 34.59375 -2 
C 35.703125 -2 35.796875 -1.796875 36.296875 -0.40625 
z
" id="CMR17-86"/>
      <path d="M 5.203125 68 
L 5.203125 65.40625 
C 12.09375 65.40625 13.203125 65.40625 13.203125 60.9375 
L 13.203125 7.0625 
C 13.203125 2.59375 12.09375 2.59375 5.203125 2.59375 
L 5.203125 0 
L 37 0 
C 53.09375 0 66 14.734375 66 33.453125 
C 66 52.28125 53.296875 68 37 68 
z
M 23.796875 2.59375 
C 19.796875 2.59375 19.59375 3.078125 19.59375 6.46875 
L 19.59375 61.53125 
C 19.59375 64.921875 19.796875 65.40625 23.796875 65.40625 
L 35 65.40625 
C 43.296875 65.40625 58.59375 60.53125 58.59375 33.453125 
C 58.59375 19.40625 54.5 13.734375 52.59375 11.046875 
C 50.203125 7.96875 44.5 2.59375 35 2.59375 
z
" id="CMR17-68"/>
      <path d="M 30.59375 -24.390625 
C 30.59375 -24.296875 30.59375 -24.09375 30.296875 -23.796875 
C 25.703125 -19.125 13.40625 -6.359375 13.40625 24.703125 
C 13.40625 55.765625 25.5 68.421875 30.40625 73.390625 
C 30.40625 73.5 30.59375 73.703125 30.59375 74 
C 30.59375 74.296875 30.296875 74.5 29.90625 74.5 
C 28.796875 74.5 20.296875 67.125 15.40625 56.15625 
C 10.40625 45.109375 9 34.359375 9 24.8125 
C 9 17.625 9.703125 5.484375 15.703125 -7.359375 
C 20.5 -17.734375 28.703125 -25 29.90625 -25 
C 30.40625 -25 30.59375 -24.796875 30.59375 -24.390625 
z
" id="CMR17-40"/>
      <path d="M 29.5 14.21875 
C 29.5 5.0625 24.5 -0.40625 19.40625 -0.40625 
C 16.796875 -0.40625 10.796875 0.765625 8.203125 6.734375 
C 8.59375 6.640625 9.09375 6.53125 9.5 6.53125 
C 11.40625 6.53125 13.796875 7.828125 13.796875 10.8125 
C 13.796875 13.203125 12.09375 15 9.59375 15 
C 7.203125 15 5.296875 13.515625 5.296875 10.65625 
C 5.296875 4.03125 11.40625 -2 19.59375 -2 
C 27.40625 -2 34.59375 3.578125 35.796875 11.9375 
C 35.90625 12.640625 35.90625 12.828125 35.90625 16.21875 
L 35.90625 58.046875 
C 35.90625 59.734375 35.90625 62.515625 36.09375 63.109375 
C 36.5 65 38.796875 65 41.90625 65 
L 41.90625 67.5 
C 41.703125 67.5 34.59375 67.5 32.09375 67.5 
C 27.90625 67.5 23.296875 67.5 19.09375 67.5 
L 19.09375 65 
L 21.5 65 
C 29.296875 65 29.5 63.90625 29.5 60.328125 
z
" id="CMR17-74"/>
      <path d="M 15 68.6875 
L 3.09375 67.59375 
L 3.09375 65 
C 9 65 9.90625 64.40625 9.90625 59.640625 
L 9.90625 -0.203125 
L 11.703125 -0.203125 
L 14.59375 6.890625 
C 17.5 2.203125 21.796875 -1 27.59375 -1 
C 37.59375 -1 47.703125 7.8125 47.703125 21.40625 
C 47.703125 34.1875 38.703125 43.59375 28.59375 43.59375 
C 22.40625 43.59375 18 40.296875 15 36.40625 
z
M 15.203125 31.3125 
C 15.203125 33.09375 15.203125 33.40625 16.59375 35.5 
C 20.5 41.515625 26.09375 42 28 42 
C 31 42 41.296875 40.390625 41.296875 21.5 
C 41.296875 1.6875 29.5 0.59375 27.09375 0.59375 
C 24 0.59375 19.5 1.78125 16.296875 7.59375 
C 15.203125 9.5 15.203125 9.703125 15.203125 11.484375 
z
" id="CMR17-98"/>
      <path d="M 26.296875 24.703125 
C 26.296875 31.875 25.59375 44.015625 19.59375 56.859375 
C 14.796875 67.234375 6.59375 74.5 5.40625 74.5 
C 5.09375 74.5 4.703125 74.390625 4.703125 73.890625 
C 4.703125 73.703125 4.796875 73.59375 4.90625 73.390625 
C 9.703125 68.40625 21.90625 55.75 21.90625 24.75 
C 21.90625 -6.359375 9.796875 -19.015625 4.90625 -24.015625 
C 4.796875 -24.203125 4.703125 -24.3125 4.703125 -24.5 
C 4.703125 -25 5.09375 -25 5.40625 -25 
C 6.5 -25 15 -17.625 19.90625 -6.65625 
C 24.90625 4.390625 26.296875 15.140625 26.296875 24.703125 
z
" id="CMR17-41"/>
     </defs>
     <g transform="translate(113.181944 160.691969)scale(0.13 -0.13)">
      <use transform="scale(0.996264)" xlink:href="#CMR17-83"/>
      <use transform="translate(50.89537 0)scale(0.996264)" xlink:href="#CMR17-86"/>
      <use transform="translate(119.9678 0)scale(0.996264)" xlink:href="#CMR17-68"/>
      <use transform="translate(220.437322 0)scale(0.996264)" xlink:href="#CMR17-40"/>
      <use transform="translate(255.71809 0)scale(0.996264)" xlink:href="#CMR17-74"/>
      <use transform="translate(302.689879 0)scale(0.996264)" xlink:href="#CMR17-97"/>
      <use transform="translate(348.380357 0)scale(0.996264)" xlink:href="#CMR17-99"/>
      <use transform="translate(388.866017 0)scale(0.996264)" xlink:href="#CMR17-111"/>
      <use transform="translate(434.556494 0)scale(0.996264)" xlink:href="#CMR17-98"/>
      <use transform="translate(485.451864 0)scale(0.996264)" xlink:href="#CMR17-105"/>
      <use transform="translate(510.322922 0)scale(0.996264)" xlink:href="#CMR17-41"/>
     </g>
    </g>
    <g id="line2d_83">
     <path d="M 76.781944 174.979827 
L 102.781944 174.979827 
" style="fill:none;stroke:#008837;stroke-linecap:square;stroke-width:1.5;"/>
    </g>
    <g id="line2d_84"/>
    <g id="text_18">
     <!-- SVD -->
     <g transform="translate(113.181944 179.529827)scale(0.13 -0.13)">
      <use transform="scale(0.996264)" xlink:href="#CMR17-83"/>
      <use transform="translate(50.89537 0)scale(0.996264)" xlink:href="#CMR17-86"/>
      <use transform="translate(119.9678 0)scale(0.996264)" xlink:href="#CMR17-68"/>
     </g>
    </g>
    <g id="line2d_85">
     <path d="M 76.781944 193.711713 
L 102.781944 193.711713 
" style="fill:none;stroke:#5e3c99;stroke-linecap:square;stroke-width:1.5;"/>
    </g>
    <g id="line2d_86"/>
    <g id="text_19">
     <!-- SVD (D\&amp;C) -->
     <defs>
      <path d="M 6.703125 20.734375 
C 4.5 18.265625 3.296875 15.5 3.296875 12.21875 
C 3.296875 4.125 11 -2 20.40625 -2 
C 29.796875 -2 35.796875 3.75 37.796875 5.640625 
C 40.5 3.15625 46 -2 54 -2 
C 61.09375 -2 67.09375 3.34375 67.296875 11.5625 
L 65.5 11.5625 
C 65.296875 3.859375 58.796875 0.59375 54.40625 0.59375 
C 48.5 0.59375 43.59375 6.421875 41.203125 9.1875 
C 43.09375 11.453125 46.296875 15.3125 52.90625 27.0625 
C 54.796875 30.328125 57.59375 35.265625 59.09375 36.546875 
C 60.5 37.734375 62.796875 39.40625 67.796875 39.40625 
L 67.796875 42.09375 
C 65.90625 42 61.703125 42 59.703125 42 
C 56.703125 42 52 42 49.09375 42 
L 49.09375 39.40625 
C 52.40625 39.40625 55.09375 38.03125 55.09375 35.375 
C 55.09375 33.796875 52.796875 29.953125 48.5 22.859375 
C 47 20.3125 43.5 14.5 40 10.671875 
C 38.5 12.546875 28.59375 25.09375 23.703125 37.828125 
C 34 50.171875 35.09375 54.671875 35.09375 57.859375 
C 35.09375 61.84375 33.796875 70 27.296875 70 
C 21.40625 70 15.296875 64.625 15.296875 54.96875 
C 15.296875 49.890625 16.09375 43.625 19.09375 34.96875 
z
M 23.09375 39.734375 
C 21.203125 44.921875 20.09375 51.484375 20.09375 56.859375 
C 20.09375 65.625 24.203125 68.40625 27.40625 68.40625 
C 33 68.40625 33.296875 59.453125 33.296875 57.953125 
C 33.296875 54.46875 31.5 49.5 23.09375 39.734375 
z
M 19.796875 33.484375 
C 24.703125 22.4375 31.796875 12.390625 36.5 7.015625 
C 31.59375 2.46875 26.203125 0.59375 21.296875 0.59375 
C 13.203125 0.59375 9.703125 8.796875 9.703125 15.28125 
C 9.703125 19.359375 11 23.4375 13.59375 26.421875 
z
" id="CMR17-38"/>
      <path d="M 62.09375 67.015625 
C 62.09375 68.796875 62 68.90625 61.40625 68.90625 
C 61 68.90625 60.90625 68.796875 60.203125 67.609375 
L 55.796875 59.25 
C 50.90625 65.421875 44.90625 69 37.203125 69 
C 20.09375 69 4.59375 54 4.59375 33.5625 
C 4.59375 12.90625 20.09375 -2 37.296875 -2 
C 52.59375 -2 62.09375 11.40625 62.09375 22.828125 
C 62.09375 23.8125 62.09375 24.21875 61.203125 24.21875 
C 60.40625 24.21875 60.40625 23.921875 60.296875 23.03125 
C 59.5 9.140625 49.5 0.59375 38.703125 0.59375 
C 28.5 0.59375 12.203125 7.734375 12.203125 33.546875 
C 12.203125 59.453125 28.796875 66.40625 38.5 66.40625 
C 49.796875 66.40625 58 56.6875 59.90625 42.890625 
C 60.09375 41.6875 60.09375 41.484375 61 41.484375 
C 62.09375 41.484375 62.09375 41.6875 62.09375 43.484375 
z
" id="CMR17-67"/>
     </defs>
     <g transform="translate(113.181944 198.261713)scale(0.13 -0.13)">
      <use transform="scale(0.996264)" xlink:href="#CMR17-83"/>
      <use transform="translate(50.89537 0)scale(0.996264)" xlink:href="#CMR17-86"/>
      <use transform="translate(119.9678 0)scale(0.996264)" xlink:href="#CMR17-68"/>
      <use transform="translate(220.437322 0)scale(0.996264)" xlink:href="#CMR17-40"/>
      <use transform="translate(255.71809 0)scale(0.996264)" xlink:href="#CMR17-68"/>
      <use transform="translate(326.111646 0)scale(0.996264)" xlink:href="#CMR17-38"/>
      <use transform="translate(397.826434 0)scale(0.996264)" xlink:href="#CMR17-67"/>
      <use transform="translate(464.336315 0)scale(0.996264)" xlink:href="#CMR17-41"/>
     </g>
    </g>
   </g>
  </g>
 </g>
 <defs>
  <clipPath id="pb9816acb9b">
   <rect height="200.810709" width="342.348266" x="65.081944" y="12.388862"/>
  </clipPath>
 </defs>
</svg>
