<?xml version="1.0" encoding="utf-8" standalone="no"?>
<!DOCTYPE svg PUBLIC "-//W3C//DTD SVG 1.1//EN"
  "http://www.w3.org/Graphics/SVG/1.1/DTD/svg11.dtd">
<!-- Created with matplotlib (http://matplotlib.org/) -->
<svg height="265.309917pt" version="1.1" viewBox="0 0 421.946448 265.309917" width="421.946448pt" xmlns="http://www.w3.org/2000/svg" xmlns:xlink="http://www.w3.org/1999/xlink">
 <defs>
  <style type="text/css">
*{stroke-linecap:butt;stroke-linejoin:round;}
  </style>
 </defs>
 <g id="figure_1">
  <g id="patch_1">
   <path d="M 0 265.309917 
L 421.946448 265.309917 
L 421.946448 0 
L 0 0 
z
" style="fill:#ffffff;"/>
  </g>
  <g id="axes_1">
   <g id="patch_2">
    <path d="M 57.765706 213.770709 
L 407.43021 213.770709 
L 407.43021 7.2 
L 57.765706 7.2 
z
" style="fill:#ffffff;"/>
   </g>
   <g id="matplotlib.axis_1">
    <g id="xtick_1">
     <g id="line2d_1">
      <path clip-path="url(#p8ea364ec93)" d="M 57.765706 213.770709 
L 57.765706 7.2 
" style="fill:none;opacity:0.1;stroke:#000000;stroke-linecap:square;stroke-width:0.5;"/>
     </g>
     <g id="line2d_2">
      <defs>
       <path d="M 0 0 
L 0 -6 
" id="m185b1a4818" style="stroke:#000000;"/>
      </defs>
      <g>
       <use style="stroke:#000000;" x="57.765706" xlink:href="#m185b1a4818" y="213.770709"/>
      </g>
     </g>
     <g id="line2d_3">
      <defs>
       <path d="M 0 0 
L 0 6 
" id="mbbc6b82693" style="stroke:#000000;"/>
      </defs>
      <g>
       <use style="stroke:#000000;" x="57.765706" xlink:href="#mbbc6b82693" y="7.2"/>
      </g>
     </g>
     <g id="text_1">
      <!-- 0 -->
      <defs>
       <path d="M 42 31.640625 
C 42 37.75 41.90625 48.125 37.703125 56.109375 
C 34 63.109375 28.09375 65.59375 22.90625 65.59375 
C 18.09375 65.59375 12 63.40625 8.203125 56.203125 
C 4.203125 48.71875 3.796875 39.4375 3.796875 31.640625 
C 3.796875 25.953125 3.90625 17.28125 7 9.671875 
C 11.296875 -0.609375 19 -2 22.90625 -2 
C 27.5 -2 34.5 -0.109375 38.59375 9.375 
C 41.59375 16.28125 42 24.359375 42 31.640625 
z
M 22.90625 -0.40625 
C 16.5 -0.40625 12.703125 5.078125 11.296875 12.6875 
C 10.203125 18.5625 10.203125 27.15625 10.203125 32.75 
C 10.203125 40.4375 10.203125 46.828125 11.5 52.921875 
C 13.40625 61.390625 19 64 22.90625 64 
C 27 64 32.296875 61.296875 34.203125 53.125 
C 35.5 47.4375 35.59375 40.734375 35.59375 32.75 
C 35.59375 26.25 35.59375 18.265625 34.40625 12.375 
C 32.296875 1.484375 26.40625 -0.40625 22.90625 -0.40625 
z
" id="CMR17-48"/>
      </defs>
      <g transform="translate(54.107587 236.148433)scale(0.15 -0.15)">
       <use transform="scale(0.996264)" xlink:href="#CMR17-48"/>
      </g>
     </g>
    </g>
    <g id="xtick_2">
     <g id="line2d_4">
      <path clip-path="url(#p8ea364ec93)" d="M 145.181832 213.770709 
L 145.181832 7.2 
" style="fill:none;opacity:0.1;stroke:#000000;stroke-linecap:square;stroke-width:0.5;"/>
     </g>
     <g id="line2d_5">
      <g>
       <use style="stroke:#000000;" x="145.181832" xlink:href="#m185b1a4818" y="213.770709"/>
      </g>
     </g>
     <g id="line2d_6">
      <g>
       <use style="stroke:#000000;" x="145.181832" xlink:href="#mbbc6b82693" y="7.2"/>
      </g>
     </g>
     <g id="text_2">
      <!-- 10 -->
      <defs>
       <path d="M 26.59375 63.40625 
C 26.59375 65.5 26.5 65.5 25.09375 65.5 
C 21.203125 61.1875 15.296875 59.796875 9.703125 59.796875 
C 9.40625 59.796875 8.90625 59.796875 8.796875 59.5 
C 8.703125 59.296875 8.703125 59.09375 8.703125 57 
C 11.796875 57 17 57.59375 21 59.984375 
L 21 7.203125 
C 21 3.6875 20.796875 2.5 12.203125 2.5 
L 9.203125 2.5 
L 9.203125 0 
C 14 0 19 0 23.796875 0 
C 28.59375 0 33.59375 0 38.40625 0 
L 38.40625 2.5 
L 35.40625 2.5 
C 26.796875 2.5 26.59375 3.59375 26.59375 7.15625 
z
" id="CMR17-49"/>
      </defs>
      <g transform="translate(137.865594 236.148433)scale(0.15 -0.15)">
       <use transform="scale(0.996264)" xlink:href="#CMR17-49"/>
       <use transform="translate(45.690477 0)scale(0.996264)" xlink:href="#CMR17-48"/>
      </g>
     </g>
    </g>
    <g id="xtick_3">
     <g id="line2d_7">
      <path clip-path="url(#p8ea364ec93)" d="M 232.597958 213.770709 
L 232.597958 7.2 
" style="fill:none;opacity:0.1;stroke:#000000;stroke-linecap:square;stroke-width:0.5;"/>
     </g>
     <g id="line2d_8">
      <g>
       <use style="stroke:#000000;" x="232.597958" xlink:href="#m185b1a4818" y="213.770709"/>
      </g>
     </g>
     <g id="line2d_9">
      <g>
       <use style="stroke:#000000;" x="232.597958" xlink:href="#mbbc6b82693" y="7.2"/>
      </g>
     </g>
     <g id="text_3">
      <!-- 20 -->
      <defs>
       <path d="M 41.703125 15.453125 
L 39.90625 15.453125 
C 38.90625 8.375 38.09375 7.171875 37.703125 6.5625 
C 37.203125 5.765625 30 5.765625 28.59375 5.765625 
L 9.40625 5.765625 
C 13 9.671875 20 16.75 28.5 24.953125 
C 34.59375 30.734375 41.703125 37.53125 41.703125 47.421875 
C 41.703125 59.21875 32.296875 66 21.796875 66 
C 10.796875 66 4.09375 56.3125 4.09375 47.34375 
C 4.09375 43.4375 7 42.9375 8.203125 42.9375 
C 9.203125 42.9375 12.203125 43.546875 12.203125 47.03125 
C 12.203125 50.109375 9.59375 51 8.203125 51 
C 7.59375 51 7 50.90625 6.59375 50.703125 
C 8.5 59.21875 14.296875 63.40625 20.40625 63.40625 
C 29.09375 63.40625 34.796875 56.515625 34.796875 47.421875 
C 34.796875 38.734375 29.703125 31.25 24 24.75 
L 4.09375 2.28125 
L 4.09375 0 
L 39.296875 0 
z
" id="CMR17-50"/>
      </defs>
      <g transform="translate(225.28172 236.148433)scale(0.15 -0.15)">
       <use transform="scale(0.996264)" xlink:href="#CMR17-50"/>
       <use transform="translate(45.690477 0)scale(0.996264)" xlink:href="#CMR17-48"/>
      </g>
     </g>
    </g>
    <g id="xtick_4">
     <g id="line2d_10">
      <path clip-path="url(#p8ea364ec93)" d="M 320.014084 213.770709 
L 320.014084 7.2 
" style="fill:none;opacity:0.1;stroke:#000000;stroke-linecap:square;stroke-width:0.5;"/>
     </g>
     <g id="line2d_11">
      <g>
       <use style="stroke:#000000;" x="320.014084" xlink:href="#m185b1a4818" y="213.770709"/>
      </g>
     </g>
     <g id="line2d_12">
      <g>
       <use style="stroke:#000000;" x="320.014084" xlink:href="#mbbc6b82693" y="7.2"/>
      </g>
     </g>
     <g id="text_4">
      <!-- 30 -->
      <defs>
       <path d="M 22.09375 33.703125 
C 31 33.703125 34.90625 25.96875 34.90625 17.03125 
C 34.90625 5 28.5 0.390625 22.703125 0.390625 
C 17.40625 0.390625 8.796875 3.03125 6.09375 10.828125 
C 6.59375 10.625 7.09375 10.625 7.59375 10.625 
C 10 10.625 11.796875 12.21875 11.796875 14.8125 
C 11.796875 17.703125 9.59375 19 7.59375 19 
C 5.90625 19 3.296875 18.203125 3.296875 14.46875 
C 3.296875 5.234375 12.296875 -2 22.90625 -2 
C 34 -2 42.5 6.71875 42.5 16.953125 
C 42.5 26.671875 34.5 33.703125 25 34.796875 
C 32.59375 36.375 39.90625 43.0625 39.90625 52.015625 
C 39.90625 59.6875 32 65.296875 23 65.296875 
C 13.90625 65.296875 5.90625 59.828125 5.90625 52.015625 
C 5.90625 48.59375 8.5 48 9.796875 48 
C 11.90625 48 13.703125 49.296875 13.703125 51.890625 
C 13.703125 54.46875 11.90625 55.765625 9.796875 55.765625 
C 9.40625 55.765625 8.90625 55.765625 8.5 55.578125 
C 11.40625 61.859375 19.296875 63 22.796875 63 
C 26.296875 63 32.90625 61.328125 32.90625 51.875 
C 32.90625 49.109375 32.5 44.1875 29.09375 39.84375 
C 26.09375 36 22.703125 36 19.40625 35.6875 
C 18.90625 35.6875 16.59375 35.453125 16.203125 35.453125 
C 15.5 35.359375 15.09375 35.265625 15.09375 34.5 
C 15.09375 33.796875 15.203125 33.703125 17.203125 33.703125 
z
" id="CMR17-51"/>
      </defs>
      <g transform="translate(312.697846 236.148433)scale(0.15 -0.15)">
       <use transform="scale(0.996264)" xlink:href="#CMR17-51"/>
       <use transform="translate(45.690477 0)scale(0.996264)" xlink:href="#CMR17-48"/>
      </g>
     </g>
    </g>
    <g id="xtick_5">
     <g id="line2d_13">
      <path clip-path="url(#p8ea364ec93)" d="M 407.43021 213.770709 
L 407.43021 7.2 
" style="fill:none;opacity:0.1;stroke:#000000;stroke-linecap:square;stroke-width:0.5;"/>
     </g>
     <g id="line2d_14">
      <g>
       <use style="stroke:#000000;" x="407.43021" xlink:href="#m185b1a4818" y="213.770709"/>
      </g>
     </g>
     <g id="line2d_15">
      <g>
       <use style="stroke:#000000;" x="407.43021" xlink:href="#mbbc6b82693" y="7.2"/>
      </g>
     </g>
     <g id="text_5">
      <!-- 40 -->
      <defs>
       <path d="M 33.59375 64.40625 
C 33.59375 66.5 33.5 66.5 31.703125 66.5 
L 2 19.59375 
L 2 17 
L 27.796875 17 
L 27.796875 7.140625 
C 27.796875 3.5 27.59375 2.5 20.59375 2.5 
L 18.703125 2.5 
L 18.703125 0 
C 21.90625 0 27.296875 0 30.703125 0 
C 34.09375 0 39.5 0 42.703125 0 
L 42.703125 2.5 
L 40.796875 2.5 
C 33.796875 2.5 33.59375 3.5 33.59375 7.140625 
L 33.59375 17 
L 43.796875 17 
L 43.796875 19.59375 
L 33.59375 19.59375 
z
M 28.09375 57.859375 
L 28.09375 19.59375 
L 4 19.59375 
z
" id="CMR17-52"/>
      </defs>
      <g transform="translate(400.113972 236.148433)scale(0.15 -0.15)">
       <use transform="scale(0.996264)" xlink:href="#CMR17-52"/>
       <use transform="translate(45.690477 0)scale(0.996264)" xlink:href="#CMR17-48"/>
      </g>
     </g>
    </g>
    <g id="text_6">
     <!-- inverse temperature $\beta$ -->
     <defs>
      <path d="M 15.5 61.078125 
C 15.5 63.265625 13.703125 65.15625 11.40625 65.15625 
C 9.203125 65.15625 7.296875 63.375 7.296875 61.078125 
C 7.296875 58.890625 9.09375 57 11.40625 57 
C 13.59375 57 15.5 58.796875 15.5 61.078125 
z
M 3.796875 42.28125 
L 3.796875 39.703125 
C 9.40625 39.703125 10.203125 39.09375 10.203125 34.328125 
L 10.203125 6.671875 
C 10.203125 2.875 9.796875 2.390625 3.40625 2.390625 
L 3.40625 -0.203125 
C 5.796875 0 10.09375 0 12.59375 0 
C 15 0 19.09375 0 21.40625 -0.203125 
L 21.40625 2.390625 
C 15.5 2.390625 15.296875 2.984375 15.296875 6.5625 
L 15.296875 43.375 
z
" id="CMR17-105"/>
      <path d="M 41.5 30.203125 
C 41.5 35.296875 40.5 43.59375 28.703125 43.59375 
C 20.796875 43.59375 16.703125 37.5 15.203125 33.5 
L 15.09375 33.5 
L 15.09375 43.59375 
L 3.296875 42.5 
L 3.296875 39.90625 
C 9.203125 39.90625 10.09375 39.296875 10.09375 34.5 
L 10.09375 6.6875 
C 10.09375 2.875 9.703125 2.390625 3.296875 2.390625 
L 3.296875 -0.203125 
C 5.703125 0 10.09375 0 12.703125 0 
C 15.296875 0 19.796875 0 22.203125 -0.203125 
L 22.203125 2.390625 
C 15.796875 2.390625 15.40625 2.78125 15.40625 6.6875 
L 15.40625 25.90625 
C 15.40625 35.109375 21 42 28 42 
C 35.40625 42 36.203125 35.40625 36.203125 30.59375 
L 36.203125 6.6875 
C 36.203125 2.875 35.796875 2.390625 29.40625 2.390625 
L 29.40625 -0.203125 
C 31.796875 0 36.203125 0 38.796875 0 
C 41.40625 0 45.90625 0 48.296875 -0.203125 
L 48.296875 2.390625 
C 41.90625 2.390625 41.5 2.78125 41.5 6.6875 
z
" id="CMR17-110"/>
      <path d="M 39.09375 33.796875 
C 40 36 41.59375 40 47.40625 40 
L 47.40625 42.59375 
C 45.5 42.59375 43 42.59375 41.09375 42.59375 
C 39 42.59375 35.703125 42.59375 33.703125 42.6875 
L 33.703125 40.09375 
C 36.203125 39.890625 37.59375 38.703125 37.59375 36.109375 
C 37.59375 35.203125 37.59375 35 37 33.609375 
L 26 5.890625 
L 14.09375 35.71875 
C 13.5 37.015625 13.5 37.203125 13.5 37.609375 
C 13.5 40 16.796875 40 18.296875 40 
L 18.296875 42.6875 
C 15.90625 42.59375 11.5 42.59375 9 42.59375 
C 6.296875 42.59375 3.203125 42.59375 1 42.6875 
L 1 40 
C 4.796875 40 6.90625 40 8.09375 36.90625 
L 22.59375 0.6875 
C 23.203125 -0.796875 23.296875 -1 24.203125 -1 
C 25.09375 -1 25.203125 -0.796875 25.796875 0.6875 
z
" id="CMR17-118"/>
      <path d="M 38.09375 23 
C 38.5 23.40625 38.5 23.609375 38.5 24.625 
C 38.5 34.96875 33.09375 44 21.703125 44 
C 11.09375 44 2.703125 33.890625 2.703125 21.609375 
C 2.703125 8.609375 12.203125 -1 22.796875 -1 
C 34 -1 38.40625 9.484375 38.40625 11.5625 
C 38.40625 12.25 37.796875 12.25 37.59375 12.25 
C 36.90625 12.25 36.796875 12.046875 36.40625 10.875 
C 34.203125 4.140625 28.703125 0.796875 23.5 0.796875 
C 19.203125 0.796875 14.90625 3.171875 12.203125 7.5 
C 9.09375 12.546875 9.09375 18.375 9.09375 23 
z
M 9.203125 24.5 
C 9.90625 39.140625 17.59375 42.40625 21.59375 42.40625 
C 28.40625 42.40625 33 35.890625 33.09375 24.5 
z
" id="CMR17-101"/>
      <path d="M 15 23.390625 
C 15 33 19.09375 42 26.59375 42 
C 27.296875 42 28 41.90625 28.703125 41.59375 
C 28.703125 41.59375 26.5 40.890625 26.5 38.3125 
C 26.5 35.90625 28.40625 34.90625 29.90625 34.90625 
C 31.09375 34.90625 33.296875 35.609375 33.296875 38.40625 
C 33.296875 41.609375 30.09375 43.59375 26.703125 43.59375 
C 19.09375 43.59375 15.796875 36.203125 14.796875 32.703125 
L 14.703125 32.703125 
L 14.703125 43.59375 
L 3.09375 42.5 
L 3.09375 39.90625 
C 9 39.90625 9.90625 39.296875 9.90625 34.5 
L 9.90625 6.6875 
C 9.90625 2.875 9.5 2.390625 3.09375 2.390625 
L 3.09375 -0.203125 
C 5.5 0 10.09375 0 12.703125 0 
C 15.59375 0 20.703125 0 23.40625 -0.203125 
L 23.40625 2.390625 
C 16.203125 2.390625 15 2.390625 15 6.875 
z
" id="CMR17-114"/>
      <path d="M 30.90625 42.140625 
C 30.90625 43.953125 30.796875 44.046875 30.203125 44.046875 
C 29.796875 44.046875 29.703125 43.953125 28.5 42.453125 
C 28.203125 42.046875 27.296875 41.03125 27 40.640625 
C 23.796875 44.046875 19.296875 44.046875 17.59375 44.046875 
C 6.5 44.046875 2.5 38.234375 2.5 32.4375 
C 2.5 23.40625 12.703125 21.328125 15.59375 20.703125 
C 21.90625 19.421875 24.09375 19.015625 26.203125 17.203125 
C 27.5 16.015625 29.703125 13.8125 29.703125 10.21875 
C 29.703125 6 27.296875 0.59375 18.09375 0.59375 
C 9.40625 0.59375 6.296875 7.1875 4.5 15.953125 
C 4.203125 17.34375 4.203125 17.453125 3.40625 17.453125 
C 2.59375 17.453125 2.5 17.34375 2.5 15.359375 
L 2.5 0.984375 
C 2.5 -0.796875 2.59375 -0.90625 3.203125 -0.90625 
C 3.703125 -0.90625 3.796875 -0.796875 4.296875 0 
C 4.90625 0.890625 6.40625 3.296875 7 4.3125 
C 9 1.609375 12.5 -1 18.09375 -1 
C 28 -1 33.296875 4.421875 33.296875 12.25 
C 33.296875 17.375 30.59375 20.078125 29.296875 21.28125 
C 26.296875 24.390625 22.796875 25.09375 18.59375 25.890625 
C 13.09375 27.109375 6.09375 28.515625 6.09375 34.640625 
C 6.09375 37.234375 7.5 42.765625 17.59375 42.765625 
C 28.296875 42.765625 28.90625 32.71875 29.09375 29.5 
C 29.203125 29 29.703125 28.890625 30 28.890625 
C 30.90625 28.890625 30.90625 29.203125 30.90625 30.90625 
z
" id="CMR17-115"/>
      <path d="M 15.09375 40 
L 29.09375 40 
L 29.09375 42.578125 
L 15.09375 42.578125 
L 15.09375 61 
L 13.296875 61 
C 13.09375 50.703125 9.59375 41.6875 1.09375 41.6875 
L 1.09375 40 
L 9.796875 40 
L 9.796875 12.046875 
C 9.796875 10.15625 9.796875 -1 21.40625 -1 
C 27.296875 -1 30.703125 4.78125 30.703125 12.140625 
L 30.703125 17.8125 
L 28.90625 17.8125 
L 28.90625 12.234375 
C 28.90625 5.375 26.203125 0.796875 22 0.796875 
C 19.09375 0.796875 15.09375 2.78125 15.09375 11.84375 
z
" id="CMR17-116"/>
      <path d="M 67.59375 30.203125 
C 67.59375 35.1875 66.703125 43.59375 54.796875 43.59375 
C 48 43.59375 43.296875 39 41.5 33.609375 
L 41.40625 33.609375 
C 40.203125 41.8125 34.296875 43.59375 28.703125 43.59375 
C 20.796875 43.59375 16.703125 37.5 15.203125 33.5 
L 15.09375 33.5 
L 15.09375 43.59375 
L 3.296875 42.5 
L 3.296875 39.90625 
C 9.203125 39.90625 10.09375 39.296875 10.09375 34.5 
L 10.09375 6.6875 
C 10.09375 2.875 9.703125 2.390625 3.296875 2.390625 
L 3.296875 -0.203125 
C 5.703125 0 10.09375 0 12.703125 0 
C 15.296875 0 19.796875 0 22.203125 -0.203125 
L 22.203125 2.390625 
C 15.796875 2.390625 15.40625 2.78125 15.40625 6.6875 
L 15.40625 25.90625 
C 15.40625 35.109375 21 42 28 42 
C 35.40625 42 36.203125 35.40625 36.203125 30.59375 
L 36.203125 6.6875 
C 36.203125 2.875 35.796875 2.390625 29.40625 2.390625 
L 29.40625 -0.203125 
C 31.796875 0 36.203125 0 38.796875 0 
C 41.40625 0 45.90625 0 48.296875 -0.203125 
L 48.296875 2.390625 
C 41.90625 2.390625 41.5 2.78125 41.5 6.6875 
L 41.5 25.90625 
C 41.5 35.109375 47.09375 42 54.09375 42 
C 61.5 42 62.296875 35.40625 62.296875 30.59375 
L 62.296875 6.6875 
C 62.296875 2.875 61.90625 2.390625 55.5 2.390625 
L 55.5 -0.203125 
C 57.90625 0 62.296875 0 64.90625 0 
C 67.5 0 72 0 74.40625 -0.203125 
L 74.40625 2.390625 
C 68 2.390625 67.59375 2.78125 67.59375 6.6875 
z
" id="CMR17-109"/>
      <path d="M 22 -16.609375 
C 15.59375 -16.609375 15.203125 -16.203125 15.203125 -12.328125 
L 15.203125 6.28125 
C 18.09375 2.09375 22.296875 -0.59375 27.59375 -0.59375 
C 37.59375 -0.59375 47.703125 8.171875 47.703125 21.6875 
C 47.703125 34.234375 39 43.78125 28.703125 43.78125 
C 22.703125 43.78125 17.796875 40.5 15 36.53125 
L 15 43.78125 
L 3.09375 42.6875 
L 3.09375 40.109375 
C 9 40.109375 9.90625 39.5 9.90625 34.734375 
L 9.90625 -12.328125 
C 9.90625 -16.109375 9.5 -16.609375 3.09375 -16.609375 
L 3.09375 -19.1875 
C 5.5 -19 9.90625 -19 12.5 -19 
C 15.09375 -19 19.59375 -19 22 -19.1875 
z
M 15.203125 31.4375 
C 15.203125 32.84375 15.203125 34.921875 19.09375 38.609375 
C 19.59375 39.015625 23 42 28 42 
C 35.296875 42 41.296875 32.9375 41.296875 21.59375 
C 41.296875 10.25 34.90625 1 27 1 
C 23.40625 1 19.5 2.6875 16.5 7.375 
C 15.203125 9.5625 15.203125 10.15625 15.203125 11.75 
z
" id="CMR17-112"/>
      <path d="M 36 25.828125 
C 36 32.375 36 35.84375 31.796875 39.734375 
C 28.09375 43 23.796875 44 20.40625 44 
C 12.5 44 6.796875 37.609375 6.796875 30.796875 
C 6.796875 27 9.796875 27 10.40625 27 
C 11.703125 27 14 27.78125 14 30.53125 
C 14 33 12.09375 34.078125 10.40625 34.078125 
C 10 34.078125 9.5 33.96875 9.203125 33.875 
C 11.296875 40.5 16.703125 42.40625 20.203125 42.40625 
C 25.203125 42.40625 30.703125 37.953125 30.703125 29.453125 
L 30.703125 25 
C 24.796875 25 17.703125 24.203125 12.09375 21.203125 
C 5.796875 17.703125 4 12.703125 4 8.90625 
C 4 1.203125 13 -1 18.296875 -1 
C 23.796875 -1 28.90625 2.171875 31.09375 7.984375 
C 31.296875 3.640625 34.09375 -0.28125 38.5 -0.28125 
C 40.59375 -0.28125 45.90625 1.09375 45.90625 8.859375 
L 45.90625 14.375 
L 44.09375 14.375 
L 44.09375 8.78125 
C 44.09375 2.78125 41.40625 2 40.09375 2 
C 36 2 36 7.15625 36 11.53125 
z
M 30.703125 13.59375 
C 30.703125 4.953125 24.5 0.59375 19 0.59375 
C 14 0.59375 10.09375 4.296875 10.09375 8.90625 
C 10.09375 11.890625 11.40625 17.1875 17.203125 20.390625 
C 22 23.09375 27.5 23.5 30.703125 23.5 
z
" id="CMR17-97"/>
      <path d="M 29.40625 42.078125 
L 29.40625 39.5 
C 35.296875 39.5 36.203125 38.890625 36.203125 34.15625 
L 36.203125 16.125 
C 36.203125 7.8125 31.703125 0.59375 24.296875 0.59375 
C 16.09375 0.59375 15.40625 5.4375 15.40625 10.59375 
L 15.40625 43.171875 
L 3.296875 42.078125 
L 3.296875 39.5 
C 7.296875 39.5 10 39.5 10.09375 35.53125 
L 10.09375 16.53125 
C 10.09375 9.890625 10.09375 5.640625 12.703125 2.859375 
C 14 1.578125 16.5 -1 23.703125 -1 
C 32.203125 -1 35.5 5.890625 36.296875 7.90625 
L 36.40625 7.90625 
L 36.40625 -0.984375 
L 48.296875 -0.984375 
L 48.296875 2 
C 42.40625 2 41.5 2.59375 41.5 7.390625 
L 41.5 43.171875 
z
" id="CMR17-117"/>
      <path d="M 56.59375 57.828125 
C 56.59375 63.765625 51.5 70 42.40625 70 
C 29.5 70 21.296875 54.328125 18.703125 44 
L 2.90625 -18.3125 
C 2.703125 -19.109375 3.296875 -19.3125 3.796875 -19.3125 
C 4.5 -19.3125 5 -19.21875 5.09375 -18.71875 
L 12.09375 9.15625 
C 13.09375 3.578125 18.59375 -1 24.5 -1 
C 38.796875 -1 52.296875 10.15625 52.296875 24.984375 
C 52.296875 28.765625 51.40625 32.546875 49.296875 35.734375 
C 48.09375 37.625 46.59375 39.015625 45 40.21875 
C 52.203125 43.984375 56.59375 50 56.59375 57.828125 
z
M 39.203125 40.3125 
C 37.59375 39.71875 36 39.515625 34.09375 39.515625 
C 32.703125 39.515625 31.40625 39.421875 29.59375 40.015625 
C 30.59375 40.71875 32.09375 40.90625 34.203125 40.90625 
C 36 40.90625 37.796875 40.71875 39.203125 40.3125 
z
M 51.40625 58.71875 
C 51.40625 53.28125 48.703125 45.359375 42.203125 41.703125 
C 40.296875 42.46875 37.703125 43 35.5 43 
C 33.40625 43 27.40625 43 27.40625 39.921875 
C 27.40625 37.328125 32.90625 37.328125 34.59375 37.328125 
C 37.203125 37.328125 39.5 38 41.90625 38.8125 
C 45.09375 36.21875 46.5 32.828125 46.5 27.859375 
C 46.5 22.078125 44.90625 17.421875 43 13.140625 
C 39.703125 5.765625 31.90625 1 25 1 
C 17.703125 1 13.90625 6.75 13.90625 13.5 
C 13.90625 14.40625 13.90625 15.703125 14.296875 17.171875 
L 20.796875 43.296875 
C 24.09375 56.296875 32.5 68.015625 42.203125 68.015625 
C 49.40625 68.015625 51.40625 63.0625 51.40625 58.71875 
z
" id="CMMI12-12"/>
     </defs>
     <g transform="translate(158.162347 254.81563)scale(0.17 -0.17)">
      <use transform="scale(0.996264)" xlink:href="#CMR17-105"/>
      <use transform="translate(24.871058 0)scale(0.996264)" xlink:href="#CMR17-110"/>
      <use transform="translate(73.163974 0)scale(0.996264)" xlink:href="#CMR17-118"/>
      <use transform="translate(118.854436 0)scale(0.996264)" xlink:href="#CMR17-101"/>
      <use transform="translate(159.340097 0)scale(0.996264)" xlink:href="#CMR17-114"/>
      <use transform="translate(194.620865 0)scale(0.996264)" xlink:href="#CMR17-115"/>
      <use transform="translate(230.422202 0)scale(0.996264)" xlink:href="#CMR17-101"/>
      <use transform="translate(300.983829 0)scale(0.996264)" xlink:href="#CMR17-116"/>
      <use transform="translate(336.264597 0)scale(0.996264)" xlink:href="#CMR17-101"/>
      <use transform="translate(376.750257 0)scale(0.996264)" xlink:href="#CMR17-109"/>
      <use transform="translate(453.669847 0)scale(0.996264)" xlink:href="#CMR17-112"/>
      <use transform="translate(507.167656 0)scale(0.996264)" xlink:href="#CMR17-101"/>
      <use transform="translate(547.653316 0)scale(0.996264)" xlink:href="#CMR17-114"/>
      <use transform="translate(582.934084 0)scale(0.996264)" xlink:href="#CMR17-97"/>
      <use transform="translate(628.624561 0)scale(0.996264)" xlink:href="#CMR17-116"/>
      <use transform="translate(663.905329 0)scale(0.996264)" xlink:href="#CMR17-117"/>
      <use transform="translate(714.800699 0)scale(0.996264)" xlink:href="#CMR17-114"/>
      <use transform="translate(750.081466 0)scale(0.996264)" xlink:href="#CMR17-101"/>
      <use transform="translate(820.643093 0)scale(0.996264)" xlink:href="#CMMI12-12"/>
     </g>
    </g>
   </g>
   <g id="matplotlib.axis_2">
    <g id="ytick_1">
     <g id="line2d_16">
      <path clip-path="url(#p8ea364ec93)" d="M 57.765706 187.94937 
L 407.43021 187.94937 
" style="fill:none;opacity:0.1;stroke:#000000;stroke-linecap:square;stroke-width:0.5;"/>
     </g>
     <g id="line2d_17">
      <defs>
       <path d="M 0 0 
L 6 0 
" id="m399b4d7b97" style="stroke:#000000;"/>
      </defs>
      <g>
       <use style="stroke:#000000;" x="57.765706" xlink:href="#m399b4d7b97" y="187.94937"/>
      </g>
     </g>
     <g id="line2d_18">
      <defs>
       <path d="M 0 0 
L -6 0 
" id="m3535ea81d6" style="stroke:#000000;"/>
      </defs>
      <g>
       <use style="stroke:#000000;" x="407.43021" xlink:href="#m3535ea81d6" y="187.94937"/>
      </g>
     </g>
     <g id="text_7">
      <!-- -60 -->
      <defs>
       <path d="M 25.5 19 
L 25.5 23.375 
L 0.40625 23.375 
L 0.40625 19 
z
" id="CMR17-45"/>
       <path d="M 10.59375 34 
C 10.59375 57.65625 21.796875 63 28.296875 63 
C 30.40625 63 35.5 62.640625 37.5 59 
C 35.90625 59 32.90625 59 32.90625 55.515625 
C 32.90625 52.828125 35.09375 51.921875 36.5 51.921875 
C 37.40625 51.921875 40.09375 52.3125 40.09375 55.625 
C 40.09375 61.78125 35.09375 65.296875 28.203125 65.296875 
C 16.296875 65.296875 3.796875 52.96875 3.796875 31 
C 3.796875 3.953125 15.09375 -2 23.09375 -2 
C 32.796875 -2 42 6.671875 42 20.046875 
C 42 32.515625 33.90625 41.59375 23.703125 41.59375 
C 17.59375 41.59375 13.09375 37.609375 10.59375 30.625 
z
M 23.09375 0.390625 
C 10.796875 0.390625 10.796875 18.75 10.796875 22.4375 
C 10.796875 29.625 14.203125 40 23.5 40 
C 25.203125 40 30.09375 40 33.40625 33.125 
C 35.203125 29.21875 35.203125 25.140625 35.203125 20.140625 
C 35.203125 14.75 35.203125 10.78125 33.09375 6.78125 
C 30.90625 2.671875 27.703125 0.390625 23.09375 0.390625 
z
" id="CMR17-54"/>
      </defs>
      <g transform="translate(26.255739 193.138232)scale(0.15 -0.15)">
       <use transform="scale(0.996264)" xlink:href="#CMR17-45"/>
       <use transform="translate(30.075966 0)scale(0.996264)" xlink:href="#CMR17-54"/>
       <use transform="translate(75.766443 0)scale(0.996264)" xlink:href="#CMR17-48"/>
      </g>
     </g>
    </g>
    <g id="ytick_2">
     <g id="line2d_19">
      <path clip-path="url(#p8ea364ec93)" d="M 57.765706 149.217362 
L 407.43021 149.217362 
" style="fill:none;opacity:0.1;stroke:#000000;stroke-linecap:square;stroke-width:0.5;"/>
     </g>
     <g id="line2d_20">
      <g>
       <use style="stroke:#000000;" x="57.765706" xlink:href="#m399b4d7b97" y="149.217362"/>
      </g>
     </g>
     <g id="line2d_21">
      <g>
       <use style="stroke:#000000;" x="407.43021" xlink:href="#m3535ea81d6" y="149.217362"/>
      </g>
     </g>
     <g id="text_8">
      <!-- -30 -->
      <g transform="translate(26.255739 154.406225)scale(0.15 -0.15)">
       <use transform="scale(0.996264)" xlink:href="#CMR17-45"/>
       <use transform="translate(30.075966 0)scale(0.996264)" xlink:href="#CMR17-51"/>
       <use transform="translate(75.766443 0)scale(0.996264)" xlink:href="#CMR17-48"/>
      </g>
     </g>
    </g>
    <g id="ytick_3">
     <g id="line2d_22">
      <path clip-path="url(#p8ea364ec93)" d="M 57.765706 110.485354 
L 407.43021 110.485354 
" style="fill:none;opacity:0.1;stroke:#000000;stroke-linecap:square;stroke-width:0.5;"/>
     </g>
     <g id="line2d_23">
      <g>
       <use style="stroke:#000000;" x="57.765706" xlink:href="#m399b4d7b97" y="110.485354"/>
      </g>
     </g>
     <g id="line2d_24">
      <g>
       <use style="stroke:#000000;" x="407.43021" xlink:href="#m3535ea81d6" y="110.485354"/>
      </g>
     </g>
     <g id="text_9">
      <!-- 0 -->
      <g transform="translate(38.449469 115.674217)scale(0.15 -0.15)">
       <use transform="scale(0.996264)" xlink:href="#CMR17-48"/>
      </g>
     </g>
    </g>
    <g id="ytick_4">
     <g id="line2d_25">
      <path clip-path="url(#p8ea364ec93)" d="M 57.765706 71.753346 
L 407.43021 71.753346 
" style="fill:none;opacity:0.1;stroke:#000000;stroke-linecap:square;stroke-width:0.5;"/>
     </g>
     <g id="line2d_26">
      <g>
       <use style="stroke:#000000;" x="57.765706" xlink:href="#m399b4d7b97" y="71.753346"/>
      </g>
     </g>
     <g id="line2d_27">
      <g>
       <use style="stroke:#000000;" x="407.43021" xlink:href="#m3535ea81d6" y="71.753346"/>
      </g>
     </g>
     <g id="text_10">
      <!-- 30 -->
      <g transform="translate(31.133231 76.942209)scale(0.15 -0.15)">
       <use transform="scale(0.996264)" xlink:href="#CMR17-51"/>
       <use transform="translate(45.690477 0)scale(0.996264)" xlink:href="#CMR17-48"/>
      </g>
     </g>
    </g>
    <g id="ytick_5">
     <g id="line2d_28">
      <path clip-path="url(#p8ea364ec93)" d="M 57.765706 33.021339 
L 407.43021 33.021339 
" style="fill:none;opacity:0.1;stroke:#000000;stroke-linecap:square;stroke-width:0.5;"/>
     </g>
     <g id="line2d_29">
      <g>
       <use style="stroke:#000000;" x="57.765706" xlink:href="#m399b4d7b97" y="33.021339"/>
      </g>
     </g>
     <g id="line2d_30">
      <g>
       <use style="stroke:#000000;" x="407.43021" xlink:href="#m3535ea81d6" y="33.021339"/>
      </g>
     </g>
     <g id="text_11">
      <!-- 60 -->
      <g transform="translate(31.133231 38.210201)scale(0.15 -0.15)">
       <use transform="scale(0.996264)" xlink:href="#CMR17-54"/>
       <use transform="translate(45.690477 0)scale(0.996264)" xlink:href="#CMR17-48"/>
      </g>
     </g>
    </g>
    <g id="text_12">
     <!-- log singular values -->
     <defs>
      <path d="M 15.296875 68.6875 
L 3.40625 67.59375 
L 3.40625 65 
C 9.296875 65 10.203125 64.40625 10.203125 59.640625 
L 10.203125 6.65625 
C 10.203125 2.875 9.796875 2.390625 3.40625 2.390625 
L 3.40625 -0.203125 
C 5.796875 0 10.203125 0 12.703125 0 
C 15.296875 0 19.703125 0 22.09375 -0.203125 
L 22.09375 2.390625 
C 15.703125 2.390625 15.296875 2.78125 15.296875 6.65625 
z
" id="CMR17-108"/>
      <path d="M 43.09375 21.1875 
C 43.09375 34 33.796875 44 22.90625 44 
C 12 44 2.703125 34 2.703125 21.1875 
C 2.703125 8.609375 12 -1 22.90625 -1 
C 33.796875 -1 43.09375 8.609375 43.09375 21.1875 
z
M 22.90625 0.796875 
C 18.203125 0.796875 14.203125 3.59375 11.90625 7.5 
C 9.40625 11.984375 9.09375 17.59375 9.09375 22 
C 9.09375 26.203125 9.296875 31.40625 11.90625 35.90625 
C 13.90625 39.203125 17.796875 42.40625 22.90625 42.40625 
C 27.40625 42.40625 31.203125 39.90625 33.59375 36.40625 
C 36.703125 31.703125 36.703125 25.109375 36.703125 22 
C 36.703125 18.09375 36.5 12.109375 33.796875 7.296875 
C 31 2.703125 26.703125 0.796875 22.90625 0.796875 
z
" id="CMR17-111"/>
      <path d="M 11.09375 18.1875 
C 13 16.6875 16.296875 15 20.296875 15 
C 28.203125 15 35 21.203125 35 29.5 
C 35 32.09375 34.203125 36.09375 31.203125 39.203125 
C 34 42.0625 38.09375 43 40.40625 43 
C 40.796875 43 41.40625 43 41.90625 42.71875 
C 41.5 42.625 40.59375 42.234375 40.59375 40.703125 
C 40.59375 39.484375 41.5 38.609375 42.796875 38.609375 
C 44.296875 38.609375 45.09375 39.578125 45.09375 40.84375 
C 45.09375 42.671875 43.59375 44.59375 40.40625 44.59375 
C 36.40625 44.59375 32.90625 42.78125 30.09375 40.3125 
C 27.09375 43.015625 23.5 44 20.296875 44 
C 12.40625 44 5.59375 37.796875 5.59375 29.5 
C 5.59375 23.78125 8.90625 20.1875 9.90625 19.1875 
C 6.90625 15.6875 6.90625 11.609375 6.90625 11.109375 
C 6.90625 8.515625 7.90625 4.71875 11.296875 2.625 
C 6.09375 1.328125 2 -2.640625 2 -7.59375 
C 2 -14.734375 11.5 -20 22.90625 -20 
C 33.90625 -20 43.796875 -14.9375 43.796875 -7.484375 
C 43.796875 6 29 6 21.296875 6 
C 19 6 14.90625 6 14.40625 6.109375 
C 11.296875 6.609375 9.203125 9.40625 9.203125 12.90625 
C 9.203125 13.796875 9.203125 16 11.09375 18.1875 
z
M 20.296875 16.6875 
C 11.5 16.6875 11.5 27.5 11.5 29.515625 
C 11.5 31.5 11.5 42.3125 20.296875 42.3125 
C 29.09375 42.3125 29.09375 31.5 29.09375 29.515625 
C 29.09375 27.5 29.09375 16.6875 20.296875 16.6875 
z
M 22.90625 -18.296875 
C 12.90625 -18.296875 6 -13.046875 6 -7.59375 
C 6 -4.515625 7.703125 -1.640625 9.90625 -0.0625 
C 12.40625 1.625 13.40625 1.625 20.203125 1.625 
C 28.40625 1.625 39.796875 1.625 39.796875 -7.59375 
C 39.796875 -13.046875 32.90625 -18.296875 22.90625 -18.296875 
z
" id="CMR17-103"/>
     </defs>
     <g transform="translate(18.961452 172.64)rotate(-90)scale(0.17 -0.17)">
      <use transform="scale(0.996264)" xlink:href="#CMR17-108"/>
      <use transform="translate(24.871058 0)scale(0.996264)" xlink:href="#CMR17-111"/>
      <use transform="translate(70.561536 0)scale(0.996264)" xlink:href="#CMR17-103"/>
      <use transform="translate(146.327979 0)scale(0.996264)" xlink:href="#CMR17-115"/>
      <use transform="translate(182.129317 0)scale(0.996264)" xlink:href="#CMR17-105"/>
      <use transform="translate(207.000375 0)scale(0.996264)" xlink:href="#CMR17-110"/>
      <use transform="translate(257.895745 0)scale(0.996264)" xlink:href="#CMR17-103"/>
      <use transform="translate(303.586222 0)scale(0.996264)" xlink:href="#CMR17-117"/>
      <use transform="translate(354.481592 0)scale(0.996264)" xlink:href="#CMR17-108"/>
      <use transform="translate(379.35265 0)scale(0.996264)" xlink:href="#CMR17-97"/>
      <use transform="translate(425.043127 0)scale(0.996264)" xlink:href="#CMR17-114"/>
      <use transform="translate(490.399862 0)scale(0.996264)" xlink:href="#CMR17-118"/>
      <use transform="translate(533.487961 0)scale(0.996264)" xlink:href="#CMR17-97"/>
      <use transform="translate(579.178438 0)scale(0.996264)" xlink:href="#CMR17-108"/>
      <use transform="translate(604.049496 0)scale(0.996264)" xlink:href="#CMR17-117"/>
      <use transform="translate(654.944866 0)scale(0.996264)" xlink:href="#CMR17-101"/>
      <use transform="translate(695.430527 0)scale(0.996264)" xlink:href="#CMR17-115"/>
     </g>
    </g>
   </g>
   <g id="line2d_31">
    <path clip-path="url(#p8ea364ec93)" d="M 66.507319 110.446876 
L 68.224109 110.232317 
L 70.799293 109.688134 
L 75.949662 108.309306 
L 85.392005 105.509912 
L 104.276691 99.620528 
L 249.345416 53.807156 
L 422.868118 -1 
L 422.868118 -1 
" style="fill:none;stroke:#e66101;stroke-linecap:round;stroke-width:1.5;"/>
   </g>
   <g id="line2d_32">
    <path clip-path="url(#p8ea364ec93)" d="M 66.507319 110.446876 
L 68.224109 110.232362 
L 71.657688 109.483275 
L 91.400769 104.657818 
L 123.161377 97.387686 
L 422.946448 29.11264 
L 422.946448 29.11264 
" style="fill:none;stroke:#e66101;stroke-linecap:round;stroke-width:1.5;"/>
   </g>
   <g id="patch_3">
    <path d="M 57.765706 213.770709 
L 57.765706 7.2 
" style="fill:none;stroke:#000000;stroke-linecap:square;stroke-linejoin:miter;"/>
   </g>
   <g id="patch_4">
    <path d="M 407.43021 213.770709 
L 407.43021 7.2 
" style="fill:none;stroke:#000000;stroke-linecap:square;stroke-linejoin:miter;"/>
   </g>
   <g id="patch_5">
    <path d="M 57.765706 213.770709 
L 407.43021 213.770709 
" style="fill:none;stroke:#000000;stroke-linecap:square;stroke-linejoin:miter;"/>
   </g>
   <g id="patch_6">
    <path d="M 57.765706 7.2 
L 407.43021 7.2 
" style="fill:none;stroke:#000000;stroke-linecap:square;stroke-linejoin:miter;"/>
   </g>
   <g id="line2d_33">
    <path clip-path="url(#p8ea364ec93)" d="M 66.507319 110.447366 
L 69.082503 110.140026 
L 74.232872 109.290847 
L 80.241636 108.036103 
L 102.559902 102.973951 
L 422.946448 30.007539 
L 422.946448 30.007539 
" style="fill:none;stroke:#e66101;stroke-linecap:round;stroke-width:1.5;"/>
   </g>
   <g id="line2d_34">
    <path clip-path="url(#p8ea364ec93)" d="M 66.507319 110.447366 
L 69.940898 110.030165 
L 73.374478 109.67578 
L 77.666452 109.461556 
L 87.96719 109.256467 
L 318.875397 105.781807 
L 422.946448 104.216529 
L 422.946448 104.216529 
" style="fill:none;stroke:#e66101;stroke-linecap:round;stroke-width:1.5;"/>
   </g>
   <g id="line2d_35">
    <path clip-path="url(#p8ea364ec93)" d="M 66.507319 110.497521 
L 69.940898 110.811437 
L 73.374478 111.062536 
L 77.666452 111.147654 
L 87.96719 111.042886 
L 318.875397 107.571606 
L 422.946448 106.006328 
L 422.946448 106.006328 
" style="fill:none;stroke:#e66101;stroke-linecap:round;stroke-width:1.5;"/>
   </g>
   <g id="line2d_36">
    <path clip-path="url(#p8ea364ec93)" d="M 66.507319 110.497521 
L 69.082503 110.727398 
L 74.232872 111.421648 
L 80.241636 112.495643 
L 102.559902 116.88644 
L 422.946448 180.215318 
L 422.946448 180.215318 
" style="fill:none;stroke:#e66101;stroke-linecap:round;stroke-width:1.5;"/>
   </g>
   <g id="line2d_37">
    <path clip-path="url(#p8ea364ec93)" d="M 66.507319 110.498011 
L 68.224109 110.660882 
L 71.657688 111.306684 
L 91.400769 115.53825 
L 123.161377 121.852993 
L 422.946448 181.110217 
L 422.946448 181.110217 
" style="fill:none;stroke:#e66101;stroke-linecap:round;stroke-width:1.5;"/>
   </g>
   <g id="line2d_38">
    <path clip-path="url(#p8ea364ec93)" d="M 66.507319 110.498011 
L 68.224109 110.660927 
L 70.799293 111.127647 
L 75.949662 112.351547 
L 85.392005 114.866906 
L 104.276691 120.188221 
L 248.487021 161.392484 
L 422.946448 211.247597 
L 422.946448 211.247597 
" style="fill:none;stroke:#e66101;stroke-linecap:round;stroke-width:1.5;"/>
   </g>
   <g id="line2d_39">
    <path clip-path="url(#p8ea364ec93)" d="M 66.507319 110.21423 
L 418.618162 -1 
L 418.618162 -1 
" style="fill:none;stroke:#008000;stroke-linecap:round;stroke-width:1.5;"/>
   </g>
   <g id="line2d_40">
    <path clip-path="url(#p8ea364ec93)" d="M 66.507319 110.289859 
L 422.946448 29.112637 
L 422.946448 29.112637 
" style="fill:none;stroke:#008000;stroke-linecap:round;stroke-width:1.5;"/>
   </g>
   <g id="line2d_41">
    <path clip-path="url(#p8ea364ec93)" d="M 66.507319 110.289859 
L 422.946448 29.112641 
L 422.946448 29.112641 
" style="fill:none;stroke:#008000;stroke-linecap:round;stroke-width:1.5;"/>
   </g>
   <g id="line2d_42">
    <path clip-path="url(#p8ea364ec93)" d="M 66.507319 110.472444 
L 218.443203 108.102291 
L 219.301597 107.892523 
L 221.018387 107.853039 
L 221.876782 107.970614 
L 222.735177 107.864494 
L 223.593572 107.294383 
L 224.451966 107.711748 
L 225.310361 107.451897 
L 226.168756 107.407028 
L 227.027151 106.855711 
L 227.885546 106.582749 
L 228.74394 106.620591 
L 229.602335 106.101295 
L 230.46073 106.050326 
L 231.319125 105.713208 
L 232.17752 105.867207 
L 233.035915 105.182709 
L 233.894309 105.428661 
L 234.752704 104.739978 
L 235.611099 104.75733 
L 236.469494 104.167887 
L 237.327889 104.060203 
L 238.186284 103.484857 
L 239.044678 103.163652 
L 239.903073 103.361446 
L 240.761468 102.455824 
L 241.619863 102.906433 
L 242.478258 102.490524 
L 243.336652 102.452862 
L 244.195047 101.717394 
L 245.053442 101.866734 
L 245.911837 101.645144 
L 247.628627 100.768248 
L 248.487021 100.733048 
L 249.345416 99.688062 
L 250.203811 99.6517 
L 251.062206 100.059851 
L 251.920601 99.790791 
L 252.778995 99.144923 
L 254.495785 98.186744 
L 255.35418 98.131907 
L 256.212575 97.927009 
L 257.07097 97.859331 
L 257.929364 97.994876 
L 258.787759 96.591106 
L 259.646154 96.670215 
L 260.504549 97.108005 
L 261.362944 96.603679 
L 262.221339 96.378096 
L 263.079733 95.812395 
L 263.938128 95.691696 
L 264.796523 94.989884 
L 265.654918 95.035794 
L 266.513313 94.103104 
L 267.371707 94.457104 
L 268.230102 94.270528 
L 269.088497 93.932568 
L 269.946892 93.381989 
L 270.805287 93.352029 
L 271.663682 93.01326 
L 272.522076 92.931869 
L 273.380471 92.237795 
L 274.238866 92.906786 
L 275.955656 91.498567 
L 276.814051 91.502106 
L 277.672445 91.334256 
L 278.53084 90.397737 
L 279.389235 90.661257 
L 280.24763 90.268259 
L 281.106025 90.40428 
L 281.964419 89.865173 
L 283.681209 89.269759 
L 284.539604 88.618468 
L 286.256394 88.82014 
L 287.114788 88.380877 
L 287.973183 87.709319 
L 288.831578 88.258408 
L 289.689973 87.5775 
L 290.548368 87.535716 
L 291.406763 87.030813 
L 292.265157 86.892597 
L 293.123552 86.338663 
L 293.981947 86.078307 
L 294.840342 85.960208 
L 296.557131 85.432668 
L 297.415526 84.650361 
L 298.273921 84.795232 
L 299.990711 84.626308 
L 301.7075 83.524053 
L 302.565895 83.550018 
L 303.42429 83.141857 
L 304.282685 82.985739 
L 305.14108 82.557711 
L 305.999475 82.531109 
L 306.857869 81.88385 
L 310.291449 80.594697 
L 311.149843 80.961062 
L 312.008238 80.637089 
L 312.866633 79.913085 
L 313.725028 79.471793 
L 314.583423 79.561334 
L 315.441818 78.675002 
L 316.300212 78.440707 
L 317.158607 78.919414 
L 318.017002 78.004517 
L 318.875397 78.099228 
L 319.733792 77.359945 
L 320.592187 78.176667 
L 321.450581 77.573332 
L 322.308976 77.182819 
L 323.167371 77.141262 
L 324.025766 76.177448 
L 324.884161 76.567846 
L 325.742555 75.772694 
L 326.60095 75.798593 
L 327.459345 75.345203 
L 328.31774 75.21422 
L 329.176135 74.59508 
L 330.03453 74.243769 
L 330.892924 74.418288 
L 331.751319 74.291694 
L 332.609714 73.453962 
L 333.468109 73.324552 
L 334.326504 73.470976 
L 335.184898 72.649098 
L 336.043293 72.956863 
L 336.901688 72.613759 
L 337.760083 72.4184 
L 338.618478 71.699295 
L 339.476873 71.196931 
L 341.193662 71.181577 
L 342.052057 70.747495 
L 342.910452 70.766903 
L 343.768847 70.339716 
L 344.627242 70.087372 
L 345.485636 69.695046 
L 346.344031 69.994676 
L 347.202426 69.114035 
L 348.060821 69.334863 
L 349.77761 68.050787 
L 350.636005 68.35984 
L 351.4944 67.910624 
L 352.352795 67.694707 
L 353.21119 66.971871 
L 355.786374 66.921038 
L 357.503164 65.992864 
L 358.361559 66.016217 
L 359.219954 65.590169 
L 360.078348 64.988372 
L 360.936743 65.13448 
L 361.795138 64.595676 
L 362.653533 64.346696 
L 363.511928 64.609601 
L 364.370322 63.585719 
L 365.228717 63.241309 
L 366.087112 63.231079 
L 367.803902 62.768038 
L 368.662297 62.917563 
L 369.520691 62.323126 
L 370.379086 61.950262 
L 372.954271 61.223694 
L 373.812666 61.319444 
L 374.67106 59.911635 
L 375.529455 60.0833 
L 377.246245 60.163791 
L 378.10464 59.001392 
L 378.963034 59.115581 
L 380.679824 58.721775 
L 381.538219 57.857216 
L 382.396614 58.297373 
L 383.255009 57.72957 
L 384.113403 57.620852 
L 384.971798 57.856078 
L 385.830193 56.922155 
L 386.688588 56.92953 
L 388.405378 56.755437 
L 389.263772 57.031956 
L 390.122167 55.346137 
L 390.980562 55.58669 
L 391.838957 55.344776 
L 392.697352 55.260918 
L 393.555746 54.910538 
L 395.272536 53.690587 
L 396.130931 53.554761 
L 396.989326 54.120265 
L 398.706115 52.785412 
L 399.56451 53.155898 
L 400.422905 52.173577 
L 401.2813 52.070767 
L 402.139695 52.437991 
L 402.998089 51.309063 
L 403.856484 51.478281 
L 404.714879 50.768676 
L 405.573274 50.956977 
L 406.431669 50.741441 
L 407.290064 50.406041 
L 408.148458 50.465024 
L 409.006853 49.54556 
L 409.865248 49.872292 
L 410.723643 49.442342 
L 411.582038 48.702916 
L 412.440433 49.037759 
L 413.298827 48.392487 
L 414.157222 48.125543 
L 415.874012 47.893027 
L 416.732407 48.039454 
L 417.590801 46.774323 
L 418.449196 46.619578 
L 419.307591 46.774712 
L 420.165986 46.073203 
L 421.024381 45.854913 
L 421.882776 45.858935 
L 422.946448 45.265932 
L 422.946448 45.265932 
" style="fill:none;stroke:#008000;stroke-linecap:round;stroke-width:1.5;"/>
   </g>
   <g id="line2d_43">
    <path clip-path="url(#p8ea364ec93)" d="M 66.507319 110.472444 
L 214.151228 108.297674 
L 215.009623 108.357687 
L 215.868018 108.181551 
L 216.726413 108.273895 
L 221.018387 108.009501 
L 222.735177 108.238835 
L 223.593572 107.963466 
L 224.451966 107.871195 
L 225.310361 108.22718 
L 226.168756 107.693408 
L 227.027151 107.910447 
L 227.885546 106.879908 
L 228.74394 106.942614 
L 229.602335 106.769101 
L 230.46073 106.928108 
L 231.319125 106.273846 
L 232.17752 106.40024 
L 233.894309 105.954915 
L 234.752704 105.439121 
L 235.611099 105.798127 
L 236.469494 104.964902 
L 237.327889 104.609632 
L 238.186284 104.679246 
L 240.761468 103.750625 
L 242.478258 103.091734 
L 243.336652 102.770825 
L 244.195047 102.103801 
L 245.053442 102.268104 
L 245.911837 101.700668 
L 247.628627 101.434916 
L 248.487021 100.973095 
L 249.345416 100.929727 
L 250.203811 100.452923 
L 251.062206 100.451583 
L 251.920601 99.854627 
L 252.778995 99.917803 
L 253.63739 99.247046 
L 254.495785 99.786048 
L 255.35418 99.298534 
L 256.212575 98.392607 
L 257.07097 98.402542 
L 257.929364 98.292656 
L 258.787759 97.749846 
L 259.646154 97.699171 
L 261.362944 96.894025 
L 262.221339 97.223485 
L 263.079733 96.982523 
L 263.938128 96.379255 
L 264.796523 96.17941 
L 265.654918 95.712384 
L 266.513313 95.64564 
L 267.371707 95.239417 
L 268.230102 95.145411 
L 269.088497 94.499299 
L 269.946892 94.587757 
L 270.805287 94.825979 
L 271.663682 94.579219 
L 272.522076 93.369642 
L 273.380471 93.002229 
L 274.238866 93.055351 
L 275.097261 92.449533 
L 275.955656 92.018664 
L 276.814051 91.929963 
L 277.672445 91.70439 
L 278.53084 91.318926 
L 279.389235 91.059527 
L 280.24763 91.077818 
L 281.106025 90.820317 
L 281.964419 89.944987 
L 282.822814 90.291798 
L 284.539604 89.521664 
L 286.256394 89.744367 
L 287.114788 89.58301 
L 287.973183 88.55027 
L 288.831578 88.873308 
L 289.689973 88.087789 
L 290.548368 87.853279 
L 291.406763 87.328659 
L 292.265157 87.566967 
L 293.123552 86.804317 
L 293.981947 86.366241 
L 294.840342 86.592441 
L 295.698737 86.142238 
L 297.415526 85.978301 
L 298.273921 85.649321 
L 299.132316 84.861112 
L 299.990711 85.062573 
L 300.849106 84.816869 
L 301.7075 84.392564 
L 302.565895 84.238034 
L 303.42429 83.911702 
L 304.282685 83.14464 
L 306.857869 82.690168 
L 307.716264 81.937998 
L 308.574659 81.586544 
L 309.433054 81.399263 
L 310.291449 81.459166 
L 312.008238 80.893414 
L 312.866633 80.444859 
L 313.725028 80.382754 
L 314.583423 80.434933 
L 315.441818 80.247622 
L 316.300212 79.556129 
L 318.017002 78.891067 
L 318.875397 78.52548 
L 319.733792 78.77594 
L 320.592187 78.811133 
L 321.450581 78.712675 
L 323.167371 77.681201 
L 324.025766 76.895241 
L 324.884161 76.828213 
L 325.742555 76.918369 
L 326.60095 76.232203 
L 328.31774 75.814614 
L 329.176135 75.15 
L 330.892924 74.856373 
L 331.751319 74.881603 
L 332.609714 74.09411 
L 333.468109 73.751668 
L 334.326504 73.74912 
L 335.184898 73.012504 
L 336.901688 73.258155 
L 338.618478 72.472963 
L 339.476873 72.456695 
L 340.335267 71.889282 
L 341.193662 71.986452 
L 343.768847 71.253697 
L 344.627242 70.583457 
L 345.485636 70.616579 
L 346.344031 70.353679 
L 347.202426 69.810397 
L 348.060821 69.418638 
L 348.919216 69.922567 
L 349.77761 68.912356 
L 350.636005 69.07969 
L 351.4944 68.820816 
L 352.352795 67.856479 
L 353.21119 68.264801 
L 354.069585 68.056893 
L 354.927979 67.411723 
L 355.786374 67.305597 
L 356.644769 66.825797 
L 357.503164 67.104649 
L 358.361559 66.289979 
L 359.219954 65.868263 
L 360.078348 65.934614 
L 362.653533 65.110399 
L 364.370322 64.883974 
L 365.228717 63.962698 
L 366.945507 63.369068 
L 367.803902 63.389883 
L 368.662297 63.279628 
L 369.520691 62.60005 
L 370.379086 62.47246 
L 371.237481 62.080805 
L 372.095876 61.924044 
L 372.954271 62.070708 
L 373.812666 61.731638 
L 374.67106 60.92805 
L 375.529455 60.945388 
L 376.38785 60.812806 
L 377.246245 60.499986 
L 378.10464 59.935215 
L 378.963034 60.072391 
L 381.538219 59.320759 
L 383.255009 58.222154 
L 384.113403 57.80298 
L 384.971798 58.1594 
L 385.830193 57.433837 
L 386.688588 57.65991 
L 387.546983 57.618533 
L 388.405378 57.42525 
L 389.263772 57.363114 
L 390.122167 56.637558 
L 392.697352 55.686238 
L 393.555746 55.742805 
L 394.414141 54.977044 
L 396.130931 54.563023 
L 396.989326 54.6094 
L 397.847721 53.559892 
L 398.706115 53.781177 
L 399.56451 53.699679 
L 400.422905 53.081148 
L 401.2813 53.066631 
L 403.856484 52.366329 
L 404.714879 51.871721 
L 405.573274 52.012683 
L 406.431669 50.994379 
L 407.290064 51.097385 
L 409.006853 50.218043 
L 409.865248 49.980826 
L 411.582038 49.956948 
L 412.440433 49.309107 
L 413.298827 49.418506 
L 414.157222 48.668424 
L 415.015617 48.661694 
L 415.874012 48.144759 
L 416.732407 48.3929 
L 417.590801 47.392385 
L 418.449196 47.280946 
L 419.307591 46.906797 
L 421.024381 46.490045 
L 421.882776 46.491226 
L 422.946448 45.75757 
L 422.946448 45.75757 
" style="fill:none;stroke:#008000;stroke-linecap:round;stroke-width:1.5;"/>
   </g>
   <g id="line2d_44">
    <path clip-path="url(#p8ea364ec93)" d="M 66.507319 110.655028 
L 156.638775 128.418365 
L 158.355565 128.404187 
L 159.21396 129.047906 
L 160.930749 128.515088 
L 161.789144 128.835398 
L 162.647539 128.422586 
L 164.364329 127.168446 
L 165.222724 127.764776 
L 166.081118 127.058972 
L 166.939513 127.040227 
L 167.797908 126.812507 
L 168.656303 125.806557 
L 169.514698 127.136002 
L 170.373093 125.280915 
L 171.231487 125.821198 
L 172.948277 125.169805 
L 173.806672 124.11199 
L 174.665067 124.154359 
L 176.381856 123.874618 
L 177.240251 124.06375 
L 178.098646 123.682705 
L 178.957041 123.580123 
L 179.815436 122.549338 
L 181.532225 122.509122 
L 182.39062 121.812259 
L 183.249015 122.192841 
L 184.10741 121.304334 
L 184.965804 120.874679 
L 185.824199 121.07832 
L 186.682594 120.74466 
L 187.540989 119.840001 
L 188.399384 119.705889 
L 190.116173 119.941489 
L 191.832963 119.363463 
L 192.691358 119.012712 
L 193.549753 118.348663 
L 194.408148 117.844244 
L 195.266542 117.186154 
L 196.124937 117.383868 
L 196.983332 117.283129 
L 197.841727 117.015687 
L 199.558516 116.091103 
L 201.275306 116.220833 
L 202.133701 115.112097 
L 202.992096 114.930341 
L 203.850491 114.265233 
L 204.708885 114.487564 
L 206.425675 114.271162 
L 207.28407 113.674738 
L 209.00086 113.399126 
L 209.859254 113.367223 
L 210.717649 112.788097 
L 211.576044 112.9397 
L 212.434439 112.523938 
L 213.292834 111.779025 
L 214.151228 111.405702 
L 215.009623 111.746031 
L 215.868018 110.607663 
L 216.726413 111.600794 
L 217.584808 110.918929 
L 218.443203 111.92473 
L 219.301597 110.738425 
L 220.159992 110.35229 
L 221.018387 110.231157 
L 221.876782 109.347617 
L 222.735177 109.52598 
L 223.593572 108.482066 
L 225.310361 108.354286 
L 226.168756 108.28158 
L 227.027151 108.953531 
L 227.885546 107.900612 
L 228.74394 107.49439 
L 229.602335 108.241438 
L 230.46073 107.231322 
L 231.319125 106.840023 
L 232.17752 107.073321 
L 233.035915 106.915583 
L 233.894309 106.131842 
L 234.752704 105.992693 
L 235.611099 106.122629 
L 238.186284 105.277036 
L 239.903073 104.518711 
L 240.761468 104.594345 
L 241.619863 104.28147 
L 242.478258 103.431128 
L 243.336652 103.482866 
L 244.195047 102.471905 
L 246.770232 102.172419 
L 247.628627 102.22161 
L 248.487021 101.536468 
L 249.345416 102.018092 
L 250.203811 101.660238 
L 251.062206 100.754021 
L 251.920601 100.7837 
L 252.778995 100.183291 
L 253.63739 100.164528 
L 254.495785 100.380352 
L 255.35418 99.504519 
L 256.212575 99.7592 
L 257.07097 99.521532 
L 257.929364 98.912793 
L 258.787759 98.059029 
L 259.646154 97.980359 
L 261.362944 97.13479 
L 262.221339 97.812657 
L 263.079733 97.390193 
L 263.938128 97.383165 
L 264.796523 96.754633 
L 265.654918 96.266698 
L 267.371707 95.757329 
L 268.230102 95.492376 
L 269.088497 95.994092 
L 269.946892 94.76896 
L 270.805287 95.445417 
L 272.522076 94.459646 
L 273.380471 93.791954 
L 274.238866 93.352382 
L 275.097261 93.902275 
L 275.955656 92.467444 
L 276.814051 92.475706 
L 277.672445 92.033728 
L 278.53084 92.22026 
L 279.389235 91.992373 
L 280.24763 91.900553 
L 281.106025 91.043836 
L 281.964419 91.100051 
L 282.822814 90.841387 
L 283.681209 91.059141 
L 284.539604 90.546957 
L 285.397999 89.884047 
L 287.114788 90.151602 
L 287.973183 89.213913 
L 288.831578 89.20505 
L 289.689973 89.569609 
L 290.548368 88.746616 
L 293.981947 86.689577 
L 294.840342 86.681574 
L 295.698737 86.471237 
L 296.557131 86.603701 
L 297.415526 86.193653 
L 298.273921 85.957578 
L 299.132316 85.472868 
L 300.849106 85.040626 
L 302.565895 84.791077 
L 303.42429 84.310229 
L 304.282685 83.968768 
L 305.14108 83.425147 
L 305.999475 83.911938 
L 306.857869 83.020728 
L 307.716264 83.337412 
L 308.574659 82.282766 
L 309.433054 81.726233 
L 310.291449 82.609991 
L 311.149843 81.872631 
L 312.008238 82.030788 
L 312.866633 81.736831 
L 313.725028 81.030451 
L 315.441818 80.817753 
L 316.300212 80.507766 
L 317.158607 80.723787 
L 318.017002 79.560836 
L 318.875397 79.044246 
L 319.733792 78.835297 
L 320.592187 79.467375 
L 321.450581 78.998386 
L 322.308976 78.952882 
L 323.167371 78.048577 
L 324.025766 77.4424 
L 324.884161 77.378746 
L 325.742555 77.605833 
L 326.60095 77.276257 
L 327.459345 77.206331 
L 328.31774 76.393632 
L 329.176135 76.098562 
L 330.03453 75.443377 
L 330.892924 76.053675 
L 331.751319 75.635225 
L 332.609714 75.42482 
L 333.468109 74.316853 
L 336.043293 73.715195 
L 336.901688 74.142791 
L 337.760083 73.34858 
L 340.335267 72.670357 
L 341.193662 72.091913 
L 342.052057 72.233972 
L 343.768847 71.878901 
L 344.627242 71.133777 
L 345.485636 71.277886 
L 346.344031 70.895784 
L 347.202426 70.018701 
L 348.919216 70.333316 
L 349.77761 69.718869 
L 350.636005 69.275967 
L 351.4944 69.266689 
L 352.352795 68.466457 
L 353.21119 68.735598 
L 354.069585 68.686255 
L 354.927979 68.13536 
L 355.786374 67.910788 
L 356.644769 67.821838 
L 357.503164 67.207267 
L 358.361559 67.274855 
L 359.219954 66.586159 
L 360.078348 66.535536 
L 361.795138 65.580636 
L 362.653533 65.392263 
L 363.511928 65.423395 
L 364.370322 65.585775 
L 365.228717 64.958694 
L 366.087112 64.144505 
L 366.945507 64.524011 
L 367.803902 64.03059 
L 368.662297 64.212535 
L 369.520691 63.060042 
L 370.379086 63.662452 
L 371.237481 62.711719 
L 372.095876 62.146516 
L 372.954271 62.144217 
L 373.812666 61.854621 
L 374.67106 62.015347 
L 376.38785 61.768169 
L 377.246245 60.979652 
L 378.10464 61.424399 
L 379.821429 60.097231 
L 381.538219 60.132347 
L 382.396614 59.780835 
L 383.255009 59.182286 
L 384.113403 59.096526 
L 384.971798 58.701152 
L 385.830193 58.561027 
L 386.688588 58.201073 
L 388.405378 57.720124 
L 389.263772 57.864618 
L 390.122167 57.038926 
L 390.980562 56.976634 
L 391.838957 56.330148 
L 392.697352 56.423276 
L 393.555746 56.174306 
L 395.272536 54.916779 
L 396.130931 54.797954 
L 396.989326 54.938009 
L 397.847721 54.159163 
L 398.706115 54.337399 
L 399.56451 55.519828 
L 400.422905 54.004079 
L 401.2813 53.160468 
L 402.998089 53.223479 
L 403.856484 52.955367 
L 404.714879 52.494252 
L 405.573274 52.894752 
L 406.431669 51.850653 
L 407.290064 51.498612 
L 408.148458 51.534071 
L 409.865248 50.393729 
L 410.723643 50.375716 
L 411.582038 50.490707 
L 412.440433 49.598075 
L 413.298827 50.405885 
L 414.157222 49.540793 
L 415.015617 48.908475 
L 415.874012 49.351993 
L 416.732407 48.718439 
L 417.590801 47.831994 
L 418.449196 48.153049 
L 419.307591 47.761156 
L 420.165986 47.566933 
L 421.024381 46.793559 
L 421.882776 46.718767 
L 422.946448 46.260383 
L 422.946448 46.260383 
" style="fill:none;stroke:#008000;stroke-linecap:round;stroke-width:1.5;"/>
   </g>
   <g id="line2d_45">
    <path clip-path="url(#p8ea364ec93)" d="M 66.507319 110.655028 
L 155.780381 128.3159 
L 156.638775 128.656099 
L 157.49717 128.692995 
L 158.355565 129.467643 
L 160.930749 129.316786 
L 161.789144 130.350256 
L 162.647539 129.151011 
L 163.505934 128.306746 
L 164.364329 128.079577 
L 165.222724 128.460418 
L 166.081118 127.291792 
L 166.939513 127.991754 
L 167.797908 127.186658 
L 168.656303 127.602546 
L 169.514698 127.396027 
L 170.373093 128.354574 
L 171.231487 126.739087 
L 172.089882 125.847221 
L 172.948277 126.74932 
L 173.806672 125.016373 
L 174.665067 125.340567 
L 175.523461 125.424079 
L 176.381856 124.202119 
L 177.240251 124.607705 
L 178.098646 124.515486 
L 178.957041 125.199988 
L 179.815436 123.48813 
L 181.532225 123.245439 
L 182.39062 122.459882 
L 183.249015 122.338601 
L 184.10741 122.463478 
L 184.965804 123.439927 
L 185.824199 121.407948 
L 186.682594 121.461763 
L 188.399384 120.977463 
L 189.257779 121.128023 
L 190.116173 120.144804 
L 190.974568 121.055046 
L 191.832963 120.467436 
L 193.549753 118.675431 
L 194.408148 119.592657 
L 195.266542 118.267226 
L 196.124937 118.749033 
L 196.983332 118.498719 
L 197.841727 118.064789 
L 198.700122 117.21334 
L 199.558516 116.896445 
L 200.416911 116.900045 
L 201.275306 118.671718 
L 202.133701 116.946999 
L 204.708885 114.868156 
L 205.56728 115.361573 
L 206.425675 115.646316 
L 207.28407 115.568595 
L 208.142465 115.34602 
L 209.00086 114.947832 
L 209.859254 116.718317 
L 210.717649 113.989721 
L 211.576044 113.309216 
L 212.434439 114.616527 
L 213.292834 113.413222 
L 214.151228 112.553199 
L 215.868018 111.534352 
L 216.726413 111.934205 
L 217.584808 111.726634 
L 218.443203 112.334937 
L 219.301597 111.502902 
L 220.159992 110.896688 
L 221.018387 110.952112 
L 221.876782 110.035115 
L 222.735177 111.300061 
L 223.593572 110.330944 
L 224.451966 110.09627 
L 225.310361 109.447374 
L 226.168756 109.25934 
L 227.027151 109.428425 
L 227.885546 108.54862 
L 228.74394 108.411503 
L 229.602335 110.148514 
L 230.46073 107.950834 
L 231.319125 108.407607 
L 232.17752 107.897178 
L 233.894309 106.684043 
L 234.752704 106.945368 
L 235.611099 106.529086 
L 236.469494 106.346556 
L 237.327889 106.014097 
L 238.186284 107.053582 
L 239.044678 105.257545 
L 239.903073 104.93549 
L 240.761468 105.043804 
L 241.619863 104.909036 
L 242.478258 104.622824 
L 243.336652 104.035591 
L 244.195047 104.032635 
L 245.053442 103.279968 
L 246.770232 103.014379 
L 247.628627 102.591437 
L 248.487021 102.532872 
L 250.203811 102.112847 
L 251.062206 101.005988 
L 251.920601 101.709996 
L 252.778995 101.293411 
L 253.63739 101.697576 
L 254.495785 100.815369 
L 255.35418 101.061332 
L 256.212575 100.703354 
L 257.07097 100.175388 
L 257.929364 100.156171 
L 258.787759 99.170917 
L 259.646154 98.59138 
L 260.504549 98.9279 
L 261.362944 98.306961 
L 262.221339 98.252808 
L 263.079733 98.737768 
L 263.938128 98.188425 
L 264.796523 97.203302 
L 265.654918 97.022722 
L 266.513313 96.387723 
L 267.371707 96.552106 
L 268.230102 96.083857 
L 269.088497 96.454657 
L 269.946892 95.56564 
L 270.805287 95.708645 
L 271.663682 95.513687 
L 272.522076 94.941519 
L 273.380471 94.095654 
L 274.238866 94.220022 
L 275.097261 94.506031 
L 275.955656 93.082187 
L 276.814051 93.352386 
L 277.672445 92.778895 
L 278.53084 92.782071 
L 279.389235 92.918752 
L 281.106025 92.50228 
L 281.964419 91.948277 
L 282.822814 92.255814 
L 284.539604 91.479748 
L 285.397999 91.243764 
L 286.256394 91.367326 
L 287.973183 89.672605 
L 288.831578 89.572623 
L 289.689973 89.884817 
L 290.548368 88.931328 
L 291.406763 89.268857 
L 292.265157 88.897543 
L 293.123552 88.679081 
L 293.981947 87.716411 
L 294.840342 87.7627 
L 295.698737 87.298844 
L 296.557131 87.387928 
L 297.415526 86.554908 
L 298.273921 86.744591 
L 299.132316 86.205832 
L 299.990711 85.352843 
L 300.849106 86.462233 
L 301.7075 85.112215 
L 302.565895 85.037424 
L 303.42429 85.292157 
L 304.282685 84.8364 
L 305.14108 83.922927 
L 305.999475 84.221416 
L 306.857869 84.29915 
L 307.716264 84.003506 
L 308.574659 83.465822 
L 309.433054 83.081208 
L 310.291449 83.44898 
L 311.149843 83.307988 
L 312.008238 82.276514 
L 313.725028 82.100543 
L 314.583423 81.730484 
L 315.441818 81.79439 
L 317.158607 81.162783 
L 318.875397 79.504549 
L 319.733792 80.440927 
L 320.592187 79.863807 
L 321.450581 81.027834 
L 322.308976 79.634272 
L 323.167371 78.849784 
L 324.884161 78.735924 
L 325.742555 77.846803 
L 326.60095 77.713706 
L 327.459345 77.75075 
L 328.31774 77.38402 
L 329.176135 76.808108 
L 330.03453 77.23462 
L 330.892924 76.584886 
L 331.751319 76.404823 
L 332.609714 76.09987 
L 333.468109 75.17464 
L 334.326504 75.514358 
L 335.184898 74.318279 
L 336.043293 74.742901 
L 336.901688 74.535949 
L 337.760083 73.557175 
L 338.618478 74.587999 
L 339.476873 73.695675 
L 341.193662 73.204559 
L 342.052057 73.06857 
L 342.910452 74.377962 
L 343.768847 72.120836 
L 344.627242 71.74798 
L 345.485636 72.72631 
L 346.344031 71.249722 
L 347.202426 70.822374 
L 348.060821 70.936821 
L 348.919216 70.761729 
L 349.77761 71.583468 
L 350.636005 69.571867 
L 351.4944 69.973259 
L 352.352795 69.085578 
L 353.21119 69.430632 
L 354.069585 69.076803 
L 354.927979 70.025628 
L 355.786374 68.438002 
L 356.644769 68.293123 
L 357.503164 67.875641 
L 358.361559 68.063396 
L 359.219954 67.237767 
L 360.078348 67.481688 
L 360.936743 66.715109 
L 361.795138 67.074913 
L 362.653533 66.988741 
L 363.511928 65.632011 
L 364.370322 66.221357 
L 365.228717 66.336244 
L 366.087112 65.393562 
L 366.945507 65.810069 
L 367.803902 64.448066 
L 368.662297 65.283631 
L 369.520691 64.273721 
L 370.379086 64.173991 
L 371.237481 64.196734 
L 372.095876 63.363786 
L 372.954271 62.197646 
L 373.812666 62.573865 
L 374.67106 63.504916 
L 375.529455 62.371028 
L 376.38785 62.279539 
L 377.246245 62.594214 
L 378.10464 61.659433 
L 378.963034 60.967169 
L 379.821429 61.217078 
L 380.679824 61.118105 
L 381.538219 60.349095 
L 382.396614 59.992109 
L 383.255009 59.362329 
L 384.113403 59.699137 
L 384.971798 59.002142 
L 385.830193 59.482738 
L 386.688588 58.980495 
L 387.546983 59.146243 
L 388.405378 58.866769 
L 390.122167 58.044079 
L 390.980562 58.774918 
L 391.838957 57.240087 
L 392.697352 57.190911 
L 393.555746 56.504192 
L 394.414141 56.150706 
L 396.130931 56.002242 
L 396.989326 56.273549 
L 397.847721 55.460005 
L 398.706115 55.052647 
L 399.56451 55.969223 
L 400.422905 54.563252 
L 401.2813 53.88544 
L 402.139695 55.198998 
L 402.998089 53.389716 
L 403.856484 54.475712 
L 404.714879 53.8809 
L 406.431669 52.508342 
L 408.148458 52.31661 
L 409.006853 51.260884 
L 409.865248 51.371194 
L 410.723643 51.833088 
L 411.582038 51.206762 
L 412.440433 49.799082 
L 413.298827 51.361032 
L 414.157222 50.077846 
L 415.015617 49.599858 
L 415.874012 49.508022 
L 416.732407 50.40117 
L 417.590801 47.980513 
L 418.449196 48.663367 
L 419.307591 48.613128 
L 420.165986 47.866045 
L 421.024381 47.881485 
L 421.882776 47.236567 
L 422.74117 48.02462 
L 422.946448 47.735619 
L 422.946448 47.735619 
" style="fill:none;stroke:#008000;stroke-linecap:round;stroke-width:1.5;"/>
   </g>
   <g id="line2d_46">
    <path clip-path="url(#p8ea364ec93)" d="M 66.507319 110.730657 
L 141.187669 132.115138 
L 142.904458 132.808434 
L 143.762853 132.855786 
L 144.621248 133.277764 
L 145.479643 134.331411 
L 146.338037 134.540731 
L 147.196432 135.920453 
L 148.054827 134.760219 
L 148.913222 136.278204 
L 149.771617 133.468963 
L 150.630012 134.025274 
L 151.488406 132.478252 
L 152.346801 131.607857 
L 153.205196 134.762777 
L 154.063591 131.377914 
L 154.921986 131.26331 
L 155.780381 131.024553 
L 156.638775 131.28067 
L 157.49717 131.295109 
L 158.355565 130.250529 
L 159.21396 132.189211 
L 160.072355 131.31618 
L 160.930749 129.572681 
L 161.789144 131.797933 
L 162.647539 131.100859 
L 163.505934 128.853554 
L 164.364329 129.739906 
L 165.222724 128.759381 
L 166.081118 129.12182 
L 166.939513 129.731595 
L 167.797908 128.082767 
L 168.656303 128.714741 
L 169.514698 128.331755 
L 170.373093 129.132756 
L 171.231487 127.588383 
L 172.089882 128.053775 
L 172.948277 128.266955 
L 173.806672 125.809167 
L 174.665067 131.675109 
L 175.523461 126.835198 
L 176.381856 125.211509 
L 177.240251 125.344853 
L 178.098646 127.133561 
L 179.815436 125.271333 
L 180.67383 124.190695 
L 181.532225 125.908691 
L 182.39062 123.438832 
L 183.249015 124.802054 
L 184.10741 124.737892 
L 184.965804 124.141307 
L 185.824199 124.905496 
L 186.682594 127.714664 
L 187.540989 125.288 
L 188.399384 121.927478 
L 189.257779 123.722098 
L 190.116173 120.718551 
L 190.974568 123.302913 
L 191.832963 123.224035 
L 192.691358 121.864687 
L 193.549753 120.233063 
L 194.408148 123.27234 
L 195.266542 122.314643 
L 196.983332 119.806013 
L 198.700122 120.237552 
L 199.558516 120.115238 
L 200.416911 118.527046 
L 201.275306 121.144815 
L 202.133701 119.35479 
L 202.992096 118.725018 
L 204.708885 117.129534 
L 205.56728 120.007986 
L 206.425675 119.129622 
L 207.28407 116.071258 
L 208.142465 115.890557 
L 209.00086 119.208321 
L 209.859254 117.411773 
L 210.717649 117.789189 
L 211.576044 118.547336 
L 212.434439 115.83253 
L 213.292834 115.146832 
L 214.151228 114.040308 
L 215.009623 113.458335 
L 215.868018 112.224609 
L 216.726413 112.705082 
L 217.584808 114.919935 
L 218.443203 113.581421 
L 219.301597 113.461296 
L 220.159992 113.1228 
L 221.018387 111.801624 
L 221.876782 112.566664 
L 222.735177 111.611136 
L 223.593572 112.568992 
L 224.451966 112.464818 
L 225.310361 113.524087 
L 226.168756 110.963148 
L 227.027151 111.875682 
L 227.885546 110.758329 
L 228.74394 109.406567 
L 229.602335 110.506729 
L 230.46073 111.855117 
L 231.319125 110.006593 
L 232.17752 109.195215 
L 233.035915 107.657978 
L 233.894309 106.775451 
L 234.752704 108.13858 
L 235.611099 108.161904 
L 236.469494 111.754419 
L 237.327889 109.661361 
L 238.186284 110.804181 
L 239.044678 105.416423 
L 239.903073 105.299411 
L 240.761468 106.561258 
L 241.619863 106.584379 
L 242.478258 105.044718 
L 243.336652 107.923815 
L 244.195047 105.162746 
L 245.911837 106.148476 
L 246.770232 104.126716 
L 248.487021 102.826452 
L 249.345416 102.49881 
L 250.203811 103.138051 
L 251.062206 103.91829 
L 251.920601 102.504425 
L 252.778995 104.451945 
L 253.63739 104.814949 
L 254.495785 102.819662 
L 255.35418 102.906424 
L 257.07097 100.92935 
L 257.929364 103.896447 
L 258.787759 101.223572 
L 259.646154 100.337575 
L 260.504549 101.633462 
L 261.362944 98.8379 
L 262.221339 100.833038 
L 263.079733 99.961735 
L 263.938128 98.422259 
L 264.796523 98.702638 
L 265.654918 98.726529 
L 266.513313 97.936698 
L 267.371707 100.907781 
L 268.230102 96.391407 
L 269.088497 102.734611 
L 269.946892 96.666098 
L 270.805287 98.682116 
L 271.663682 96.916193 
L 272.522076 96.133043 
L 273.380471 95.793417 
L 274.238866 97.322562 
L 275.097261 95.419468 
L 275.955656 95.159485 
L 276.814051 94.20196 
L 277.672445 95.998313 
L 278.53084 95.864006 
L 279.389235 94.558709 
L 280.24763 95.902977 
L 281.106025 92.797897 
L 281.964419 95.736022 
L 282.822814 94.687686 
L 283.681209 94.127925 
L 284.539604 91.805351 
L 285.397999 92.094323 
L 286.256394 91.575267 
L 287.114788 91.287635 
L 287.973183 90.297998 
L 288.831578 90.724901 
L 289.689973 91.68569 
L 290.548368 90.346051 
L 291.406763 89.586494 
L 292.265157 92.684772 
L 293.123552 93.784628 
L 293.981947 88.585607 
L 294.840342 89.119895 
L 295.698737 88.764131 
L 296.557131 87.851016 
L 297.415526 87.892008 
L 298.273921 87.567582 
L 299.132316 86.59516 
L 299.990711 92.622138 
L 300.849106 89.491191 
L 301.7075 85.882398 
L 302.565895 85.409143 
L 303.42429 88.908145 
L 304.282685 85.356275 
L 305.14108 84.523539 
L 305.999475 86.411392 
L 306.857869 84.928032 
L 307.716264 84.960923 
L 308.574659 85.69416 
L 309.433054 85.904779 
L 310.291449 84.022806 
L 311.149843 83.777504 
L 312.008238 84.418589 
L 312.866633 84.622251 
L 313.725028 82.918753 
L 314.583423 82.305039 
L 315.441818 85.576979 
L 316.300212 84.784929 
L 318.017002 81.271842 
L 318.875397 84.413575 
L 319.733792 83.485946 
L 320.592187 81.356544 
L 321.450581 81.815173 
L 322.308976 81.48786 
L 323.167371 79.63967 
L 324.025766 81.581631 
L 324.884161 78.972359 
L 325.742555 78.923017 
L 326.60095 80.206662 
L 328.31774 78.676758 
L 329.176135 78.279461 
L 330.03453 78.771042 
L 330.892924 77.24437 
L 331.751319 77.693034 
L 332.609714 78.319243 
L 333.468109 76.595098 
L 334.326504 76.947988 
L 335.184898 76.707977 
L 336.043293 76.323203 
L 336.901688 76.353748 
L 337.760083 74.570796 
L 338.618478 78.346764 
L 339.476873 74.516449 
L 340.335267 75.419408 
L 341.193662 74.636275 
L 342.052057 75.047302 
L 342.910452 76.211921 
L 343.768847 72.254587 
L 344.627242 78.78943 
L 345.485636 75.177888 
L 346.344031 73.536822 
L 347.202426 73.146127 
L 348.060821 73.822012 
L 348.919216 73.992725 
L 349.77761 72.67539 
L 350.636005 74.761061 
L 351.4944 70.751066 
L 352.352795 74.745337 
L 353.21119 70.598532 
L 354.069585 70.765698 
L 354.927979 70.691318 
L 355.786374 72.650494 
L 356.644769 68.83785 
L 358.361559 69.71912 
L 359.219954 67.952905 
L 360.078348 68.060676 
L 360.936743 69.995888 
L 361.795138 67.909206 
L 362.653533 67.812673 
L 363.511928 67.400879 
L 364.370322 67.64518 
L 365.228717 68.586861 
L 366.087112 67.623824 
L 366.945507 71.329319 
L 367.803902 65.9546 
L 369.520691 65.82407 
L 370.379086 64.56289 
L 372.095876 68.700315 
L 372.954271 64.933965 
L 373.812666 63.517295 
L 374.67106 65.470405 
L 375.529455 63.867494 
L 376.38785 63.263528 
L 377.246245 66.898371 
L 378.10464 66.874101 
L 378.963034 62.518462 
L 379.821429 61.703521 
L 380.679824 62.176883 
L 381.538219 62.03375 
L 382.396614 60.970783 
L 383.255009 60.226015 
L 384.971798 61.110404 
L 385.830193 63.725839 
L 386.688588 62.947919 
L 387.546983 64.585037 
L 388.405378 61.359315 
L 389.263772 59.985873 
L 390.122167 59.214327 
L 390.980562 61.851362 
L 391.838957 60.42907 
L 392.697352 58.410496 
L 393.555746 57.937682 
L 394.414141 56.80259 
L 395.272536 57.879565 
L 396.130931 59.621785 
L 396.989326 58.862032 
L 397.847721 56.773267 
L 398.706115 56.172527 
L 399.56451 56.299643 
L 400.422905 55.434919 
L 401.2813 56.038394 
L 402.139695 55.964367 
L 402.998089 60.554059 
L 403.856484 54.81715 
L 404.714879 57.139768 
L 405.573274 56.064944 
L 406.431669 53.250887 
L 407.290064 52.756595 
L 408.148458 52.919553 
L 409.006853 56.59092 
L 409.865248 53.328027 
L 410.723643 52.01031 
L 411.582038 52.795874 
L 412.440433 52.306878 
L 413.298827 52.31425 
L 414.157222 52.086962 
L 415.015617 54.67608 
L 415.874012 51.135242 
L 416.732407 51.583101 
L 417.590801 49.001977 
L 418.449196 50.406907 
L 419.307591 49.626917 
L 420.165986 48.457256 
L 421.024381 48.141719 
L 421.882776 48.404681 
L 422.946448 48.333549 
L 422.946448 48.333549 
" style="fill:none;stroke:#008000;stroke-linecap:round;stroke-width:1.5;"/>
   </g>
   <g id="line2d_47">
    <path clip-path="url(#p8ea364ec93)" d="M 66.507319 132.433492 
L 75.248932 132.433492 
L 83.990544 132.433492 
L 92.732157 132.433492 
L 101.473769 132.433492 
L 110.215382 132.433492 
L 118.956994 132.433492 
L 127.698607 132.433492 
L 136.44022 132.433492 
L 145.181832 132.433492 
L 153.923445 132.433492 
L 162.665057 132.433492 
L 171.40667 132.433492 
L 180.148283 132.433492 
L 188.889895 132.433492 
L 197.631508 132.433492 
L 206.37312 132.433492 
L 215.114733 132.433492 
L 223.856345 132.433492 
L 232.597958 132.433492 
L 241.339571 132.433492 
L 250.081183 132.433492 
L 258.822796 132.433492 
L 267.564408 132.433492 
L 276.306021 132.433492 
L 285.047634 132.433492 
L 293.789246 132.433492 
L 302.530859 132.433492 
L 311.272471 132.433492 
L 320.014084 132.433492 
L 328.755696 132.433492 
L 337.497309 132.433492 
L 346.238922 132.433492 
L 354.980534 132.433492 
L 363.722147 132.433492 
L 372.463759 132.433492 
L 381.205372 132.433492 
L 389.946985 132.433492 
L 398.688597 132.433492 
L 407.43021 132.433492 
" style="fill:none;stroke:#a9a9a9;stroke-dasharray:5.55,2.4;stroke-dashoffset:0;stroke-width:1.5;"/>
   </g>
   <g id="legend_1">
    <g id="line2d_48">
     <path d="M 69.465706 23.45 
L 95.465706 23.45 
" style="fill:none;stroke:#e66101;stroke-linecap:square;stroke-width:1.5;"/>
    </g>
    <g id="line2d_49"/>
    <g id="text_13">
     <!-- stable -->
     <defs>
      <path d="M 15 68.6875 
L 3.09375 67.59375 
L 3.09375 65 
C 9 65 9.90625 64.40625 9.90625 59.640625 
L 9.90625 -0.203125 
L 11.703125 -0.203125 
L 14.59375 6.890625 
C 17.5 2.203125 21.796875 -1 27.59375 -1 
C 37.59375 -1 47.703125 7.8125 47.703125 21.40625 
C 47.703125 34.1875 38.703125 43.59375 28.59375 43.59375 
C 22.40625 43.59375 18 40.296875 15 36.40625 
z
M 15.203125 31.3125 
C 15.203125 33.09375 15.203125 33.40625 16.59375 35.5 
C 20.5 41.515625 26.09375 42 28 42 
C 31 42 41.296875 40.390625 41.296875 21.5 
C 41.296875 1.6875 29.5 0.59375 27.09375 0.59375 
C 24 0.59375 19.5 1.78125 16.296875 7.59375 
C 15.203125 9.5 15.203125 9.703125 15.203125 11.484375 
z
" id="CMR17-98"/>
     </defs>
     <g transform="translate(105.865706 28)scale(0.13 -0.13)">
      <use transform="scale(0.996264)" xlink:href="#CMR17-115"/>
      <use transform="translate(35.801338 0)scale(0.996264)" xlink:href="#CMR17-116"/>
      <use transform="translate(71.082105 0)scale(0.996264)" xlink:href="#CMR17-97"/>
      <use transform="translate(116.772583 0)scale(0.996264)" xlink:href="#CMR17-98"/>
      <use transform="translate(167.667952 0)scale(0.996264)" xlink:href="#CMR17-108"/>
      <use transform="translate(192.539011 0)scale(0.996264)" xlink:href="#CMR17-101"/>
     </g>
    </g>
    <g id="line2d_50">
     <path d="M 69.465706 41.568312 
L 95.465706 41.568312 
" style="fill:none;stroke:#008000;stroke-linecap:square;stroke-width:1.5;"/>
    </g>
    <g id="line2d_51"/>
    <g id="text_14">
     <!-- naive -->
     <g transform="translate(105.865706 46.118312)scale(0.13 -0.13)">
      <use transform="scale(0.996264)" xlink:href="#CMR17-110"/>
      <use transform="translate(50.89537 0)scale(0.996264)" xlink:href="#CMR17-97"/>
      <use transform="translate(96.585847 0)scale(0.996264)" xlink:href="#CMR17-105"/>
      <use transform="translate(121.456905 0)scale(0.996264)" xlink:href="#CMR17-118"/>
      <use transform="translate(167.147367 0)scale(0.996264)" xlink:href="#CMR17-101"/>
     </g>
    </g>
    <g id="line2d_52">
     <path d="M 69.465706 59.686624 
L 95.465706 59.686624 
" style="fill:none;stroke:#a9a9a9;stroke-dasharray:5.55,2.4;stroke-dashoffset:0;stroke-width:1.5;"/>
    </g>
    <g id="line2d_53"/>
    <g id="text_15">
     <!-- Float64 -->
     <defs>
      <path d="M 54.40625 67.578125 
L 5.09375 67.578125 
L 5.09375 65 
C 12 65 13.09375 65 13.09375 60.53125 
L 13.09375 6.96875 
C 13.09375 2.5 12 2.5 5.09375 2.5 
L 5.09375 0 
C 8 0 13.59375 0 16.703125 0 
C 20.796875 0 25.59375 0 29.703125 0 
L 29.703125 2.5 
L 27.5 2.5 
C 19.90625 2.5 19.703125 3.484375 19.703125 7.0625 
L 19.703125 32.421875 
L 28.703125 32.421875 
C 38 32.421875 38.90625 29.140625 38.90625 20.8125 
L 40.703125 20.8125 
L 40.703125 46.671875 
L 38.90625 46.671875 
C 38.90625 38.28125 38 35 28.703125 35 
L 19.703125 35 
L 19.703125 61.109375 
C 19.703125 64.5 19.90625 65 23.90625 65 
L 36.796875 65 
C 51.90625 65 53.59375 58.828125 55 45.5625 
L 56.796875 45.5625 
z
" id="CMR17-70"/>
     </defs>
     <g transform="translate(105.865706 64.236624)scale(0.13 -0.13)">
      <use transform="scale(0.996264)" xlink:href="#CMR17-70"/>
      <use transform="translate(59.983847 0)scale(0.996264)" xlink:href="#CMR17-108"/>
      <use transform="translate(84.854905 0)scale(0.996264)" xlink:href="#CMR17-111"/>
      <use transform="translate(130.545382 0)scale(0.996264)" xlink:href="#CMR17-97"/>
      <use transform="translate(176.235859 0)scale(0.996264)" xlink:href="#CMR17-116"/>
      <use transform="translate(211.516627 0)scale(0.996264)" xlink:href="#CMR17-54"/>
      <use transform="translate(257.207104 0)scale(0.996264)" xlink:href="#CMR17-52"/>
     </g>
    </g>
   </g>
  </g>
 </g>
 <defs>
  <clipPath id="p8ea364ec93">
   <rect height="206.570709" width="349.664503" x="57.765706" y="7.2"/>
  </clipPath>
 </defs>
</svg>
